<?xml version="1.0" encoding="UTF-8"?>
<svg version="1.1" viewBox="0 0 25.01 13.08" xmlns="http://www.w3.org/2000/svg" xmlns:cc="http://creativecommons.org/ns#" xmlns:dc="http://purl.org/dc/elements/1.1/" xmlns:rdf="http://www.w3.org/1999/02/22-rdf-syntax-ns#">
<metadata>
<rdf:RDF>
<cc:Work rdf:about="">
<dc:format>image/svg+xml</dc:format>
<dc:type rdf:resource="http://purl.org/dc/dcmitype/StillImage"/>
<dc:title/>
</cc:Work>
</rdf:RDF>
</metadata>
<g transform="translate(-.9246 -95.69)">
<path d="m4.278 105.1c-0.16 0-0.47 0-0.567 0.2-0.09 0.2 0 0.5 0.146 0.7 0.371 0.6 1.128 0.6 1.815 0.4 0.751-0.1 1.418-0.4 1.736-1 0.265-0.5 0.288-1.2 0.06-1.7-0.212-0.5-0.646-0.9-1.138-1.2-1.038-0.5-2.338-0.4-3.412 0.1-0.687 0.3-1.282 0.8-1.617 1.4-0.3182 0.6-0.4009 1.4-0.202 2.1 0.194 0.7 0.659 1.2 1.228 1.6 0.875 0.6 1.996 0.8 3.058 0.7 0.806-0.1 1.578-0.3 2.282-0.7 1.059-0.5 1.964-1.3 2.753-2.3 0.87-1 1.61-2.1 2.34-3.1 1.1-1.6 2.2-2.89 3.69-4.64 0.1-0.1 0.12-0.15 0.19-0.15 0.16 0 0.19 0.1 0.2 0.17 0 0.15 0 0.28-0.13 0.41-0.5 0.72-0.88 1.31-1.28 1.91-0.59 0.9-1.26 1.8-1.85 2.8-0.34 0.5-0.66 1-0.95 1.6-0.28 0.6-0.54 1.1-0.73 1.7-0.1 0.3-0.18 0.6-0.27 1-0.1 0.3-0.15 0.7 0.1 0.9 0.1 0.1 0.26 0.1 0.4 0.1 0.29 0 0.5-0.3 0.7-0.5 0.64-0.9 1.12-1.6 1.61-2.4 0.57-0.9 1.17-1.9 1.84-2.8 0.61-0.8 1.29-1.7 1.89-2.4 0.24-0.24 0.46-0.5 0.81-0.82 0.6-0.55 1.59-1.27 1.64-1.2 0.1 0.1-0.8 0.91-1.32 1.5-0.25 0.28-0.41 0.5-0.59 0.72-0.56 0.7-1.18 1.6-1.68 2.5-0.49 0.8-0.86 1.7-1.08 2.6-0.11 0.5-0.18 1-0.16 1.4 0 0.4 0.1 0.9 0.35 1.2 0.14 0.2 0.32 0.3 0.53 0.4h0.52c0.32-0.1 0.57-0.3 0.82-0.6 0.29-0.3 0.55-0.6 0.68-1 0.1-0.2 0.1-0.3 0.14-0.5v-0.3c-0.1 0-0.11 0-0.24 0.1-0.1 0.2-0.21 0.4-0.24 0.5-0.1 0.2-0.15 0.4-0.3 0.6s-0.33 0.4-0.5 0.5c-0.24 0.2-0.37 0.2-0.51 0.3-0.13 0-0.26-0.1-0.39-0.2-0.1-0.1-0.2-0.3-0.12-0.6 0.1-0.3 0.14-0.6 0.22-0.9 0.1-0.3 0.19-0.7 0.33-1.1 0.15-0.3 0.47-1.1 0.79-1.8 0.38-0.7 0.7-1.3 1.05-1.9 0.36-0.6 0.79-1.3 1.23-1.91 0.51-0.64 0.94-1.2 1.43-1.75 0.48-0.41 0.85-0.73 1.22-0.97 0.64-0.3 1-0.58 1.61-0.64 0.26 0 0.17 0.18 0.19 0.32 0.1 0.14 0.22 0.28 0.55 0.31 0.36-0.1 0.43-0.17 0.47-0.32 0-0.17 0-0.24-0.16-0.34-0.13-0.11-0.75-0.44-1.45-0.31-0.6 0.21-0.85 0.29-1.07 0.39-0.23 0.1-0.86 0.38-1.49 0.69-0.58 0.37-1.26 0.8-1.88 1.31-0.59 0.55-1.38 1.28-2.12 2.12-0.66 0.8-1.16 1.4-1.61 2.1-0.49 0.7-0.9 1.3-1.32 1.9-0.34 0.5-0.74 1-1.02 1.5-0.62 0.9-1.14 1.9-1.27 1.8-0.12 0-0.16-0.1 0-0.5 0.14-0.3 0.23-0.5 0.33-0.7 0.11-0.2 0.21-0.4 0.34-0.6 0.12-0.2 0.44-0.7 0.75-1.2s0.57-0.9 0.85-1.3 0.71-1.1 1.05-1.7c0.4-0.6 0.61-0.9 0.84-1.3 0.2-0.43 0.41-0.96 0.65-1.53 0.23-0.57 0.33-0.8 0.38-1.04 0-0.28 0-0.42-0.1-0.6-0.11-0.1-0.24-0.19-0.47-0.15-0.18 0.1-0.46 0.2-0.64 0.38-0.2 0.2-0.46 0.48-0.71 0.77-0.25 0.3-0.87 1.04-1.48 1.78-0.61 0.69-1.37 1.69-2.13 2.59-0.75 0.9-1.27 1.6-1.911 2.3-0.542 0.7-1.006 1-1.755 1.6-0.587 0.5-1.149 0.8-1.75 1.1-0.581 0.1-0.95 0.2-1.558 0.3-0.516 0-1.044 0-1.632-0.1-0.547-0.2-0.908-0.3-1.228-0.6-0.274-0.4-0.417-0.6-0.538-0.9-0.09-0.4-0.07-0.6-0.03-0.9 0.09-0.3 0.166-0.7 0.443-1.1 0.277-0.3 0.691-0.7 1.227-1 0.609-0.3 1.319-0.6 2.551-0.5 0.934 0.2 1.161 0.6 1.401 1 0.191 0.4 0.23 0.7 0.141 1.1-0.08 0.3-0.318 0.7-1.021 1-0.539 0.4-1.137 0.5-1.639 0.4-0.39-0.1-0.543-0.4-0.605-0.6-0.02-0.1 0-0.3 0.201-0.3" fill="none" stroke="#cca876" stroke-width=".1213"/>
<path d="m18.83 96.19c-0.1 0.1-0.19 0.19-0.3 0.25-0.25 0.13-0.57 0.1-0.88 0-0.88-0.12-1.68-0.15-2.5-0.19-1.71-0.1-3.5-0.17-5.266 0.14-0.796 0.15-1.587 0.38-2.226 0.85-0.442 0.32-0.812 0.76-1.049 1.27-0.182 0.38-0.286 0.81-0.282 1.23 0 0.46 0.09 0.76 0.278 1.16 0.201 0.3 0.514 0.6 0.866 0.9 0.305 0.2 0.64 0.3 0.991 0.4 0.399 0.1 0.82 0.1 1.231 0 0.597-0.1 1.177-0.3 1.657-0.7 0.41-0.3 0.75-0.7 0.92-1.2 0.1-0.34 0.14-0.59 0.13-0.88 0-0.27-0.1-0.55-0.22-0.77-0.16-0.23-0.41-0.41-0.67-0.51-0.34-0.12-0.7-0.11-1.05-0.1-0.574 0.1-1.125 0.28-1.581 0.63-0.645 0.48-1.1 1.25-1.231 2.03-0.04 0.2-0.05 0.5-0.06 0.7" fill="none" stroke="#cca876" stroke-width=".1213"/>
<path d="m18.83 96.19c0.1-0.1 0.23-0.1 0.31 0 0.1 0.1 0.11 0.25 0.1 0.38-0.1 0.18-0.27 0.23-0.47 0.27-0.65 0.12-1.2 0-1.78 0-0.84-0.1-1.73-0.17-2.61-0.2-0.87 0-1.74 0-2.6 0.1-0.81 0.1-1.61 0.28-2.35 0.64-0.651 0.31-1.251 0.75-1.676 1.34-0.221 0.3-0.395 0.64-0.493 1-0.08 0.28-0.107 0.58-0.08 0.88 0.03 0.3 0.1 0.6 0.257 0.8 0.325 0.4 1.009 0.5 1.616 0.5 0.641-0.1 1.196-0.2 1.696-0.6 0.42-0.2 0.8-0.6 1.03-1 0.17-0.43 0.25-0.86 0.1-1.21-0.1-0.2-0.26-0.37-0.46-0.47-0.22-0.12-0.48-0.13-0.73-0.12-0.29 0-0.56 0.1-0.827 0.18-0.271 0.1-0.523 0.26-0.749 0.45-0.278 0.23-0.515 0.5-0.71 0.81-0.212 0.36-0.374 0.76-0.438 1.06-0.04 0.3-0.04 0.5-0.04 0.7" fill="none" stroke="#cca876" stroke-width=".1213"/>
<path d="m7.613 101.9c0.01 0.1 0.02 0.1 0.05 0.2 0.128 0.5 0.505 0.9 0.959 1.2 0.237 0.1 0.494 0.1 0.754 0.2 0.246 0 0.493 0 0.734-0.1 0.14 0 0.29-0.1 0.38-0.2 0.1-0.1 0.1-0.2 0-0.3 0-0.1-0.19-0.1-0.26 0 0 0-0.1 0.1-0.11 0.2-0.1 0-0.157 0-0.257 0.1h-0.501c-0.185-0.1-0.378-0.1-0.557-0.2-0.323-0.1-0.602-0.3-0.751-0.7-0.05 0-0.08-0.1-0.106-0.2" fill="none" stroke="#cca876" stroke-width=".1213"/>
<path d="m7.204 104c-0.257-0.2-0.515-0.5-0.818-0.6-0.438-0.3-0.971-0.3-1.481-0.3-0.523 0.1-1.022 0.2-1.498 0.4-0.409 0.2-0.802 0.4-1.078 0.8-0.251 0.3-0.405 0.7-0.474 1.1-0.08 0.5-0.05 0.9 0 1.4" fill="none" stroke="#cca876" stroke-width=".1213"/>
<path d="m11.9 99.73c-0.16-0.37-0.32-0.75-0.61-0.91-0.32-0.18-0.81-0.1-1.21 0.1-0.329 0.12-0.602 0.28-0.852 0.49-0.318 0.26-0.598 0.59-0.771 0.99-0.194 0.4-0.253 0.9-0.312 1.3" fill="none" stroke="#cca876" stroke-width=".1213"/>
<path d="m19.06 96.14c0.18 0 0.36 0 0.43 0.16 0.1 0.14 0 0.4-0.13 0.56-0.37 0.42-1.15 0.11-1.45 0.38-0.18 0.17-0.19 0.55-0.24 0.88-0.1 0.6-0.34 1.05-0.58 1.52-0.51 0.96-1.02 2.06-1.54 3.06" fill="none" stroke="#cca876" stroke-width=".1213"/>
<path d="m16.79 97.01c-0.63-0.1-1.25-0.11-1.88-0.15-0.57 0-1.14-0.1-1.72 0-0.5 0-0.99 0.1-1.49 0.14-0.39 0.1-0.77 0.15-1.14 0.27-0.38 0.12-0.756 0.28-1.117 0.45-0.258 0.13-0.511 0.27-0.742 0.44-0.241 0.18-0.457 0.4-0.636 0.64-0.145 0.19-0.267 0.41-0.356 0.64-0.114 0.29-0.175 0.56-0.175 0.86s0.04 0.5 0.08 0.8" fill="none" stroke="#cca876" stroke-width=".1213"/>
<path d="m11.46 98.17c0.39 0.15 0.78 0.31 1 0.62 0.1 0.14 0.16 0.31 0.18 0.48v0.73c0 0.2-0.1 0.4-0.17 0.6-0.1 0.3-0.25 0.5-0.41 0.6-0.3 0.4-0.65 0.7-1.05 0.9-0.23 0.1-0.49 0.2-0.75 0.3-0.38 0.1-0.781 0.2-1.176 0.1-0.322 0-0.64-0.1-0.958-0.1" fill="none" stroke="#cca876" stroke-width=".1213"/>
<path d="m5.693 102.3c0.628 0.2 1.256 0.3 1.697 0.8 0.148 0.1 0.274 0.3 0.357 0.5 0.104 0.2 0.14 0.5 0.139 0.8 0 0.3-0.05 0.6-0.166 0.9s-0.298 0.5-0.523 0.7c-0.272 0.3-0.607 0.4-0.955 0.5-0.233 0.1-0.472 0.2-0.714 0.2-0.343 0.1-0.69 0.1-1.047 0-0.245 0-0.494-0.1-0.633-0.3-0.18-0.2-0.177-0.6-0.173-0.9" fill="none" stroke="#cca876" stroke-width=".1213"/>
<path d="m16.45 98.47c-0.83 0.93-1.67 1.83-2.47 2.83-0.4 0.5-0.79 1-1.15 1.5-0.45 0.6-0.87 1.3-1.35 1.9-0.47 0.6-1.02 1.2-1.59 1.8-0.593 0.5-1.218 1.1-1.933 1.4-0.494 0.3-1.031 0.5-1.586 0.6-0.933 0.2-1.917 0.3-2.823 0.1-0.477-0.1-0.933-0.4-1.342-0.7-0.302-0.2-0.579-0.4-0.761-0.7-0.202-0.4-0.285-0.8-0.368-1.2" fill="none" stroke="#cca876" stroke-width=".1213"/>
<path d="m18.57 100.3c-0.62 0.6-1.23 1.2-1.78 1.9-0.51 0.6-0.96 1.3-1.39 2-0.28 0.4-0.56 0.8-0.83 1.3-0.3 0.5-0.59 0.9-0.91 1.4-0.24 0.3-0.49 0.6-0.74 1-0.14 0.2-0.29 0.3-0.53 0.5-0.2 0.1-0.48 0.1-0.64 0-0.23-0.1-0.21-0.5-0.19-0.9" fill="none" stroke="#cca876" stroke-width=".1213"/>
<path d="m18.71 105.9c0.16 0 0.32 0.1 0.4 0.1 0.16 0.2 0 0.6-0.18 0.9-0.24 0.5-0.43 0.8-0.73 1-0.18 0.2-0.4 0.4-0.64 0.5-0.22 0.1-0.45 0.2-0.69 0.2-0.27 0-0.54-0.2-0.72-0.4-0.26-0.3-0.31-0.7-0.36-1.1" fill="none" stroke="#cca876" stroke-width=".1213"/>
<path d="m24.53 95.77c0.72 0 1.33 0.1 1.34 0.58 0 0.1 0 0.23-0.1 0.34-0.1 0.15-0.26 0.25-0.43 0.3-0.17 0-0.34 0.1-0.49 0-0.17-0.1-0.31-0.19-0.47-0.26-0.14-0.1-0.29-0.1-0.44-0.1-0.19 0-0.38 0.1-0.55 0.16-0.38 0.17-0.72 0.43-1.03 0.7-0.3 0.26-0.57 0.54-0.83 0.83-0.46 0.5-0.9 1.02-1.29 1.57-0.37 0.61-0.69 1.11-1.02 1.71-0.44 0.8-0.89 1.6-1.3 2.4-0.26 0.5-0.51 1.1-0.72 1.6-0.12 0.4-0.23 0.7-0.32 1.1 0 0.1-0.1 0.3-0.1 0.5s0.1 0.3 0.17 0.4c0.15 0.1 0.39 0 0.64-0.1" fill="none" stroke="#cca876" stroke-width=".1213"/>
<path d="m4.278 105.1c0.04-0.1 0.07-0.1 0.106 0 0.04 0 0.07 0 0.08 0.1 0 0-0.02 0.1-0.05 0.1h-0.26" fill="none" stroke="#cca876" stroke-width=".1213"/>
<path d="m8.533 102.1c-0.486 0-1.024-0.3-1.435-0.7-0.509-0.5-0.735-1.1-0.672-1.88 0.03-0.35 0.1-0.58 0.271-0.94 0.483-1.01 1.335-1.63 2.652-1.95 1.491-0.36 3.021-0.41 6.461-0.23 0.9 0 0.88 0 1.7 0.14 0.81 0.1 0.97 0.1 1.3-0.22 0.12-0.11 0.15-0.12 0.22-0.1 0.1 0 0.15 0.18 0.11 0.3-0.1 0.15-0.33 0.23-0.9 0.28-0.24 0-0.44 0-1.82-0.13-1.3-0.14-2.01-0.17-3.16-0.15-1.44 0-2.27 0.14-3.23 0.45-0.39 0.13-1.093 0.48-1.423 0.71-0.543 0.38-1.016 0.93-1.271 1.48-0.189 0.4-0.25 0.67-0.254 1.14 0 1 0.364 1.4 1.326 1.5 0.307 0.1 0.957 0 1.305-0.1 0.847-0.2 1.617-0.7 2.007-1.3 0.18-0.3 0.26-0.59 0.26-0.95 0-0.29 0-0.34-0.1-0.5-0.1-0.21-0.33-0.42-0.56-0.52-0.25-0.1-0.86-0.1-1.22 0-0.766 0.2-1.48 0.8-1.921 1.56-0.218 0.41-0.321 0.81-0.356 1.31l-0.02 0.2h-0.07c-0.07-0.1-0.07-0.1-0.05-0.4 0.03-0.4 0.146-0.8 0.324-1.15 0.487-0.99 1.278-1.56 2.423-1.75 1.05-0.18 1.75 0.24 1.88 1.11 0.1 0.64-0.17 1.29-0.69 1.89-0.45 0.4-1.01 0.7-1.804 0.9-0.32 0.1-1.048 0.1-1.287 0z" fill="none" stroke-width="0"/>
<path d="m8.533 102.1c-0.486 0-1.024-0.3-1.435-0.7-0.509-0.5-0.735-1.1-0.672-1.88 0.03-0.35 0.1-0.58 0.271-0.94 0.483-1.01 1.335-1.63 2.652-1.95 1.491-0.36 3.021-0.41 6.461-0.23 0.9 0 0.88 0 1.7 0.14 0.81 0.1 0.97 0.1 1.3-0.22 0.12-0.11 0.15-0.12 0.22-0.1 0.1 0 0.15 0.18 0.11 0.3-0.1 0.15-0.33 0.23-0.9 0.28-0.24 0-0.44 0-1.82-0.13-1.3-0.14-2.01-0.17-3.16-0.15-1.44 0-2.27 0.14-3.23 0.45-0.39 0.13-1.093 0.48-1.423 0.71-0.543 0.38-1.016 0.93-1.271 1.48-0.189 0.4-0.25 0.67-0.254 1.14 0 1 0.364 1.4 1.326 1.5 0.307 0.1 0.957 0 1.305-0.1 0.847-0.2 1.617-0.7 2.007-1.3 0.18-0.3 0.26-0.59 0.26-0.95 0-0.29 0-0.34-0.1-0.5-0.1-0.21-0.33-0.42-0.56-0.52-0.25-0.1-0.86-0.1-1.22 0-0.766 0.2-1.48 0.8-1.921 1.56-0.218 0.41-0.321 0.81-0.356 1.31l-0.02 0.2h-0.07c-0.07-0.1-0.07-0.1-0.05-0.4 0.03-0.4 0.146-0.8 0.324-1.15 0.487-0.99 1.278-1.56 2.423-1.75 1.05-0.18 1.75 0.24 1.88 1.11 0.1 0.64-0.17 1.29-0.69 1.89-0.45 0.4-1.01 0.7-1.804 0.9-0.32 0.1-1.048 0.1-1.287 0z" fill="none" stroke-width="0"/>
<path d="m8.533 102.1c-0.486 0-1.024-0.3-1.435-0.7-0.509-0.5-0.735-1.1-0.672-1.88 0.03-0.35 0.1-0.58 0.271-0.94 0.483-1.01 1.335-1.63 2.652-1.95 1.491-0.36 3.021-0.41 6.461-0.23 0.9 0 0.88 0 1.7 0.14 0.81 0.1 0.97 0.1 1.3-0.22 0.12-0.11 0.15-0.12 0.22-0.1 0.1 0 0.15 0.18 0.11 0.3-0.1 0.15-0.33 0.23-0.9 0.28-0.24 0-0.44 0-1.82-0.13-1.3-0.14-2.01-0.17-3.16-0.15-1.44 0-2.27 0.14-3.23 0.45-0.39 0.13-1.093 0.48-1.423 0.71-0.543 0.38-1.016 0.93-1.271 1.48-0.189 0.4-0.25 0.67-0.254 1.14 0 1 0.364 1.4 1.326 1.5 0.307 0.1 0.957 0 1.305-0.1 0.847-0.2 1.617-0.7 2.007-1.3 0.18-0.3 0.26-0.59 0.26-0.95 0-0.29 0-0.34-0.1-0.5-0.1-0.21-0.33-0.42-0.56-0.52-0.25-0.1-0.86-0.1-1.22 0-0.766 0.2-1.48 0.8-1.921 1.56-0.218 0.41-0.321 0.81-0.356 1.31l-0.02 0.2h-0.07c-0.07-0.1-0.07-0.1-0.05-0.4 0.03-0.4 0.146-0.8 0.324-1.15 0.487-0.99 1.278-1.56 2.423-1.75 1.05-0.18 1.75 0.24 1.88 1.11 0.1 0.64-0.17 1.29-0.69 1.89-0.45 0.4-1.01 0.7-1.804 0.9-0.32 0.1-1.048 0.1-1.287 0z" fill="none" stroke-width="0"/>
<path d="m8.533 102.1c-0.486 0-1.024-0.3-1.435-0.7-0.509-0.5-0.735-1.1-0.672-1.88 0.03-0.35 0.1-0.58 0.271-0.94 0.483-1.01 1.335-1.63 2.652-1.95 1.491-0.36 3.021-0.41 6.461-0.23 0.9 0 0.88 0 1.7 0.14 0.81 0.1 0.97 0.1 1.3-0.22 0.12-0.11 0.15-0.12 0.22-0.1 0.1 0 0.15 0.18 0.11 0.3-0.1 0.15-0.33 0.23-0.9 0.28-0.24 0-0.44 0-1.82-0.13-1.3-0.14-2.01-0.17-3.16-0.15-1.44 0-2.27 0.14-3.23 0.45-0.39 0.13-1.093 0.48-1.423 0.71-0.543 0.38-1.016 0.93-1.271 1.48-0.189 0.4-0.25 0.67-0.254 1.14 0 1 0.364 1.4 1.326 1.5 0.307 0.1 0.957 0 1.305-0.1 0.847-0.2 1.617-0.7 2.007-1.3 0.18-0.3 0.26-0.59 0.26-0.95 0-0.29 0-0.34-0.1-0.5-0.1-0.21-0.33-0.42-0.56-0.52-0.25-0.1-0.86-0.1-1.22 0-0.766 0.2-1.48 0.8-1.921 1.56-0.218 0.41-0.321 0.81-0.356 1.31l-0.02 0.2h-0.07c-0.07-0.1-0.07-0.1-0.05-0.4 0.03-0.4 0.146-0.8 0.324-1.15 0.487-0.99 1.278-1.56 2.423-1.75 1.05-0.18 1.75 0.24 1.88 1.11 0.1 0.64-0.17 1.29-0.69 1.89-0.45 0.4-1.01 0.7-1.804 0.9-0.32 0.1-1.048 0.1-1.287 0z" fill="none" stroke-width="0"/>
<path d="m8.533 102.1c-0.486 0-1.024-0.3-1.435-0.7-0.509-0.5-0.735-1.1-0.672-1.88 0.03-0.35 0.1-0.58 0.271-0.94 0.483-1.01 1.335-1.63 2.652-1.95 1.491-0.36 3.021-0.41 6.461-0.23 0.9 0 0.88 0 1.7 0.14 0.81 0.1 0.97 0.1 1.3-0.22 0.12-0.11 0.15-0.12 0.22-0.1 0.1 0 0.15 0.18 0.11 0.3-0.1 0.15-0.33 0.23-0.9 0.28-0.24 0-0.44 0-1.82-0.13-1.3-0.14-2.01-0.17-3.16-0.15-1.44 0-2.27 0.14-3.23 0.45-0.39 0.13-1.093 0.48-1.423 0.71-0.543 0.38-1.016 0.93-1.271 1.48-0.189 0.4-0.25 0.67-0.254 1.14 0 1 0.364 1.4 1.326 1.5 0.307 0.1 0.957 0 1.305-0.1 0.847-0.2 1.617-0.7 2.007-1.3 0.18-0.3 0.26-0.59 0.26-0.95 0-0.29 0-0.34-0.1-0.5-0.1-0.21-0.33-0.42-0.56-0.52-0.25-0.1-0.86-0.1-1.22 0-0.766 0.2-1.48 0.8-1.921 1.56-0.218 0.41-0.321 0.81-0.356 1.31l-0.02 0.2h-0.07c-0.07-0.1-0.07-0.1-0.05-0.4 0.03-0.4 0.146-0.8 0.324-1.15 0.487-0.99 1.278-1.56 2.423-1.75 1.05-0.18 1.75 0.24 1.88 1.11 0.1 0.64-0.17 1.29-0.69 1.89-0.45 0.4-1.01 0.7-1.804 0.9-0.32 0.1-1.048 0.1-1.287 0z" fill="none" stroke-width="0"/>
<path d="m8.533 102.1c-0.486 0-1.024-0.3-1.435-0.7-0.509-0.5-0.735-1.1-0.672-1.88 0.03-0.35 0.1-0.58 0.271-0.94 0.483-1.01 1.335-1.63 2.652-1.95 1.491-0.36 3.021-0.41 6.461-0.23 0.9 0 0.88 0 1.7 0.14 0.81 0.1 0.97 0.1 1.3-0.22 0.12-0.11 0.15-0.12 0.22-0.1 0.1 0 0.15 0.18 0.11 0.3-0.1 0.15-0.33 0.23-0.9 0.28-0.24 0-0.44 0-1.82-0.13-1.3-0.14-2.01-0.17-3.16-0.15-1.44 0-2.27 0.14-3.23 0.45-0.39 0.13-1.093 0.48-1.423 0.71-0.543 0.38-1.016 0.93-1.271 1.48-0.189 0.4-0.25 0.67-0.254 1.14 0 1 0.364 1.4 1.326 1.5 0.307 0.1 0.957 0 1.305-0.1 0.847-0.2 1.617-0.7 2.007-1.3 0.18-0.3 0.26-0.59 0.26-0.95 0-0.29 0-0.34-0.1-0.5-0.1-0.21-0.33-0.42-0.56-0.52-0.25-0.1-0.86-0.1-1.22 0-0.766 0.2-1.48 0.8-1.921 1.56-0.218 0.41-0.321 0.81-0.356 1.31l-0.02 0.2h-0.07c-0.07-0.1-0.07-0.1-0.05-0.4 0.03-0.4 0.146-0.8 0.324-1.15 0.487-0.99 1.278-1.56 2.423-1.75 1.05-0.18 1.75 0.24 1.88 1.11 0.1 0.64-0.17 1.29-0.69 1.89-0.45 0.4-1.01 0.7-1.804 0.9-0.32 0.1-1.048 0.1-1.287 0z" fill="#cca876" fill-opacity=".9412" stroke-width="0"/>
<path d="m4.036 108.3c-0.919-0.2-1.557-0.5-2.086-1-0.625-0.6-0.905-1.3-0.861-2.1 0.04-0.8 0.307-1.3 0.863-1.9 0.602-0.6 1.455-0.9 2.404-1 0.723-0.1 1.53 0.1 2.095 0.4 0.714 0.4 1.093 1 1.093 1.8 0 0.9-0.621 1.6-1.838 1.9-1.05 0.2-1.699 0-1.904-0.7-0.1-0.3-0.04-0.4 0.209-0.5 0.139-0.1 0.335-0.1 0.362 0h-0.138c-0.134 0-0.27 0.1-0.318 0.2-0.07 0.1-0.06 0.2 0.04 0.4 0.104 0.2 0.205 0.3 0.439 0.4 0.144 0.1 0.185 0.1 0.494 0.1 0.405 0 0.723-0.1 1.157-0.3 0.628-0.3 0.955-0.6 1.15-1 0.111-0.2 0.113-0.2 0.113-0.6s-0.04-0.6-0.237-0.9c-0.264-0.4-0.685-0.7-1.296-0.8-0.345-0.1-1.125-0.1-1.576 0-0.88 0.2-1.461 0.6-2.069 1.2-0.25 0.2-0.366 0.4-0.449 0.5-0.356 0.7-0.429 1.5-0.19 2 0.1 0.2 0.386 0.6 0.528 0.8 0.278 0.3 0.978 0.5 1.523 0.6 0.439 0.1 1.505 0.1 1.79 0 0.126 0 0.443-0.1 0.705-0.2 0.382-0.1 0.558-0.1 0.906-0.3 1.081-0.5 2.296-1.5 3.235-2.6 0.18-0.2 0.64-0.8 1.03-1.3 0.8-1 4.1-4.97 4.63-5.56 0.41-0.45 0.5-0.53 0.79-0.68 0.26-0.12 0.35-0.13 0.5 0 0.2 0.13 0.24 0.42 0.11 0.8-0.22 0.67-0.83 2.14-1.11 2.64-0.36 0.6-1.28 2.1-1.81 2.9-1.52 2.3-2 3.1-2.23 3.7-0.14 0.4-0.1 0.6 0.12 0.6 0.12 0 0.26-0.2 0.71-0.9 0.48-0.8 1.29-2 2.2-3.3 1.05-1.5 1.2-1.7 1.84-2.5 0.57-0.8 0.96-1.24 1.91-2.15 0.86-0.82 1.14-1.03 2.1-1.66 0.64-0.41 1.64-0.89 2.61-1.23 0.42-0.15 0.48-0.16 0.72-0.16 0.57 0 1.19 0.28 1.19 0.53 0 0.24-0.38 0.37-0.65 0.24-0.12-0.1-0.2-0.16-0.2-0.24 0-0.15-0.1-0.25-0.17-0.29h-0.34c-0.3 0.1-0.43 0.11-0.98 0.39-0.78 0.39-1.46 0.95-2.09 1.7-0.8 0.96-1.04 1.28-1.59 2.17-0.66 1-0.67 1-1.01 1.6-0.44 0.8-0.7 1.3-0.92 1.8-0.62 1.5-0.8 2-1 2.8-0.18 0.8-0.18 0.8-0.13 1 0.1 0.3 0.17 0.4 0.45 0.4 0.15 0.1 0.15 0.1 0.43-0.1 0.23-0.1 0.31-0.1 0.49-0.3 0.28-0.4 0.45-0.6 0.6-1 0.1-0.1 0.17-0.3 0.22-0.4 0.1-0.1 0.1-0.1 0.11 0 0 0.1-0.1 0.5-0.19 0.7-0.2 0.5-0.77 1.1-1.16 1.3-0.3 0.1-0.59 0.1-0.83 0-0.22-0.1-0.45-0.3-0.54-0.6-0.12-0.3-0.15-0.5-0.15-1s0.1-0.9 0.23-1.5c0.41-1.4 1.06-2.6 2.44-4.4 0.55-0.83 0.76-1.08 1.45-1.82 0.6-0.64 0.65-0.7 0.69-0.81 0.1-0.13 0-0.13-0.1-0.11-0.28 0-1.45 0.95-2.02 1.55-0.13 0.13-0.47 0.49-0.77 0.89-1.45 1.8-1.83 2.3-3.41 4.8-1.52 2.4-1.96 2.9-2.29 2.9-0.11 0-0.33-0.1-0.38-0.2-0.17-0.3 0.17-1.6 0.75-2.8 0.47-1 0.97-1.8 1.93-3.3 1.51-2.27 2.45-3.68 2.5-3.77 0.1-0.12 0.1-0.37 0-0.46-0.1-0.1-0.28-0.1-0.37 0-0.15 0.13-1.91 2.25-2.56 3.13-0.58 0.7-1.07 1.4-1.8 2.4-1.17 1.7-1.66 2.3-2.408 3-0.594 0.6-0.846 0.9-1.387 1.2-0.821 0.6-1.736 0.9-2.711 1-0.346 0.1-1.346 0.1-1.602 0.1z" fill="#cca876" fill-opacity=".9412" stroke-width="0"/>
<path d="m4.143 105.3h0.01v-0.1h0.241c0-0.1-0.04-0.1-0.08-0.1h-0.08c-0.03 0-0.03 0 0 0s0.05 0 0.05-0.1h0.06c0.154 0 0.23 0.2 0.131 0.3h-0.19c-0.142 0.1-0.149 0.1-0.141 0z" fill="#cca876" fill-opacity=".9412" stroke-width="0"/>
<path d="m4.155 105.3h0.01c0-0.1 0.05-0.1 0.1-0.1h0.146s0-0.1-0.02-0.1h-0.126c0.01 0 0.02-0.1 0.02-0.1h0.05c0.116 0 0.186 0.1 0.178 0.2 0 0-0.01 0.1-0.04 0.1h-0.316z" fill="#cca876" fill-opacity=".9412" stroke-width="0"/>
<path d="m17.98 96.58h-0.68 0.91c0.17 0 0.28 0 0.4-0.13 0.11-0.1 0.21-0.18 0.2-0.21l-0.15 0.1c-0.1 0-0.11 0.1-0.1 0l0.1-0.1 0.1-0.1c0 0.1-0.14 0.13-0.18 0.17-0.1 0.1-0.2 0.11-0.32 0.14h-0.35z" fill="#cca876" fill-opacity=".9412" stroke-width="0"/>
<path d="m18.6 97.15c0.29 0 0.39 0 0.49-0.1 0.25-0.1 0.41-0.27 0.47-0.54v-0.18c0-0.1-0.1-0.13-0.13-0.16-0.11-0.1-0.3-0.1-0.45-0.1h-0.11c-0.1 0-0.1 0.1 0 0.1h0.2c0.1 0 0.1 0 0 0h-0.11 0.43c0.24 0 0.36 0.1 0.41 0.2 0.1 0.13 0 0.32-0.1 0.49-0.13 0.21-0.32 0.32-0.63 0.36h-0.32 0.1z" fill="#cca876" fill-opacity=".9412" stroke-width="0"/>
<path d="m6.415 100.4c-0.07-0.2-0.09-0.79-0.04-1.09 0.04-0.27 0.141-0.57 0.259-0.81 0.124-0.24 0.127-0.17 0 0.1-0.188 0.41-0.247 0.69-0.246 1.18 0 0.32 0.01 0.42 0.05 0.62 0.07 0.2 0.04 0.3-0.03 0z" fill="#cca876" fill-opacity=".9412" stroke-width="0"/>
<path d="m9.313 103.4c-0.552-0.1-0.926-0.3-1.25-0.7-0.135-0.1-0.295-0.4-0.331-0.6l-0.02-0.1 0.1 0.1c0.05 0 0.111 0.1 0.128 0.1 0.129 0.3 0.404 0.7 0.693 0.8 0.31 0.2 0.498 0.2 0.974 0.2 0.483 0 0.583 0 0.653-0.2 0 0 0.1-0.1 0.13-0.1 0.1 0 0.11 0.1 0 0.2-0.1 0.1-0.23 0.2-0.475 0.3h-0.638z" fill="#cca876" fill-opacity=".9412" stroke-width="0"/>
</g>
</svg>
