<?xml version="1.0" encoding="UTF-8" standalone="no"?>
<!-- Created with Inkscape (http://www.inkscape.org/) -->

<svg
 xmlns:dc="http://purl.org/dc/elements/1.1/"
 xmlns:cc="http://creativecommons.org/ns#"
 xmlns:rdf="http://www.w3.org/1999/02/22-rdf-syntax-ns#"
 xmlns:svg="http://www.w3.org/2000/svg"
 xmlns="http://www.w3.org/2000/svg"
 xmlns:xlink="http://www.w3.org/1999/xlink"
 version="1.1"
 width="29.9"
 height="29.9"
 id="svg3069">
<metadata
 id="metadata3151">
<rdf:RDF>
<cc:Work
 rdf:about="">
<dc:format>image/svg+xml</dc:format>
<dc:type
 rdf:resource="http://purl.org/dc/dcmitype/StillImage" />
<dc:title></dc:title>
</cc:Work>
</rdf:RDF>
</metadata>
<defs
 id="defs3071">
<linearGradient
 id="linearGradient5852">
<stop
 id="stop5854"
 style="stop-color:#cca876;stop-opacity:1"
 offset="0" />
<stop
 id="stop5860"
 style="stop-color:#cca876;stop-opacity:0.298"
 offset="0.5" />
<stop
 id="stop5856"
 style="stop-color:#cca876;stop-opacity:1"
 offset="1" />
</linearGradient>
<linearGradient
 id="linearGradient5451">
<stop
 id="stop5453"
 style="stop-color:#703b1b;stop-opacity:1"
 offset="0" />
<stop
 id="stop5459"
 style="stop-color:#703b1b;stop-opacity:0.6275"
 offset="0.5" />
<stop
 id="stop5455"
 style="stop-color:#703b1b;stop-opacity:1"
 offset="1" />
</linearGradient>
<linearGradient
 id="linearGradient5423">
<stop
 id="stop5425"
 style="stop-color:#703b1b;stop-opacity:1"
 offset="0" />
<stop
 id="stop5431"
 style="stop-color:#703b1b;stop-opacity:0.6275"
 offset="0.5" />
<stop
 id="stop5427"
 style="stop-color:#703b1b;stop-opacity:1"
 offset="1" />
</linearGradient>
<linearGradient
 id="linearGradient5389">
<stop
 id="stop5391"
 style="stop-color:#703b1b;stop-opacity:1"
 offset="0" />
<stop
 id="stop5405"
 style="stop-color:#703b1b;stop-opacity:0.6275"
 offset="0.5" />
<stop
 id="stop5403"
 style="stop-color:#703b1b;stop-opacity:1"
 offset="1" />
</linearGradient>
<linearGradient
 x1="68.41"
 y1="405.6"
 x2="226.6"
 y2="405.6"
 id="linearGradient7209"
 xlink:href="#linearGradient6006"
 gradientUnits="userSpaceOnUse"
 gradientTransform="matrix(0.0368,0.0368,-0.0368,0.0368,2.521,-5.613)" />
<linearGradient
 x1="222.7"
 y1="517"
 x2="303.2"
 y2="517"
 id="linearGradient3283"
 xlink:href="#linearGradient5389"
 gradientUnits="userSpaceOnUse"
 gradientTransform="matrix(0.7071,-0.7071,0.7071,0.7071,-4.341,357.9)" />
<linearGradient
 x1="338.4"
 y1="229.8"
 x2="668.5"
 y2="229.8"
 id="linearGradient3285"
 xlink:href="#linearGradient5451"
 gradientUnits="userSpaceOnUse"
 gradientTransform="matrix(0.7071,0.7071,-0.7071,0.7071,353.6,19.06)" />
<linearGradient
 x1="239.9"
 y1="690"
 x2="285.3"
 y2="690"
 id="linearGradient3287"
 xlink:href="#linearGradient5423"
 gradientUnits="userSpaceOnUse"
 gradientTransform="matrix(0.7071,-0.7071,0.7071,0.7071,-4.341,357.9)" />
<linearGradient
 x1="668.6"
 y1="230.1"
 x2="684.4"
 y2="230.1"
 id="linearGradient3289"
 xlink:href="#linearGradient5451"
 gradientUnits="userSpaceOnUse"
 gradientTransform="matrix(0.7071,0.7071,-0.7071,0.7071,353.6,19.06)" />
<linearGradient
 x1="242.4"
 y1="709.5"
 x2="283.8"
 y2="709.5"
 id="linearGradient3291"
 xlink:href="#linearGradient5451"
 gradientUnits="userSpaceOnUse"
 gradientTransform="matrix(0.7071,-0.7071,0.7071,0.7071,-4.341,357.9)" />
<linearGradient
 x1="685.8"
 y1="229.7"
 x2="706.2"
 y2="229.7"
 id="linearGradient3293"
 xlink:href="#linearGradient5451"
 gradientUnits="userSpaceOnUse"
 gradientTransform="matrix(0.7071,0.7071,-0.7071,0.7071,353.6,19.06)" />
<linearGradient
 x1="231.5"
 y1="338.6"
 x2="294.5"
 y2="338.6"
 id="linearGradient3295"
 xlink:href="#linearGradient5451"
 gradientUnits="userSpaceOnUse"
 gradientTransform="matrix(0.7071,-0.7071,0.7071,0.7071,-4.341,357.9)" />
<linearGradient
 x1="313"
 y1="229.8"
 x2="337.2"
 y2="229.8"
 id="linearGradient3297"
 xlink:href="#linearGradient5451"
 gradientUnits="userSpaceOnUse"
 gradientTransform="matrix(0.7071,0.7071,-0.7071,0.7071,353.6,19.06)" />
<linearGradient
 x1="221.8"
 y1="297.5"
 x2="303.8"
 y2="297.5"
 id="linearGradient3299"
 xlink:href="#linearGradient5451"
 gradientUnits="userSpaceOnUse"
 gradientTransform="matrix(0.7071,-0.7071,0.7071,0.7071,-4.341,357.9)" />
<linearGradient
 x1="255.8"
 y1="229.9"
 x2="312.2"
 y2="229.9"
 id="linearGradient3301"
 xlink:href="#linearGradient5451"
 gradientUnits="userSpaceOnUse"
 gradientTransform="matrix(0.7071,0.7071,-0.7071,0.7071,353.6,19.06)" />
<linearGradient
 x1="227.6"
 y1="264.9"
 x2="298.2"
 y2="264.9"
 id="linearGradient3303"
 xlink:href="#linearGradient5451"
 gradientUnits="userSpaceOnUse"
 gradientTransform="matrix(0.7071,-0.7071,0.7071,0.7071,-4.341,357.9)" />
<linearGradient
 x1="245.9"
 y1="229.9"
 x2="256.8"
 y2="229.9"
 id="linearGradient3305"
 xlink:href="#linearGradient5451"
 gradientUnits="userSpaceOnUse"
 gradientTransform="matrix(0.7071,0.7071,-0.7071,0.7071,353.6,19.06)" />
<linearGradient
 x1="67.98"
 y1="54.42"
 x2="227.3"
 y2="54.42"
 id="linearGradient3307"
 xlink:href="#linearGradient5451"
 gradientUnits="userSpaceOnUse"
 gradientTransform="matrix(0.7071,0.7071,-0.7071,0.7071,353.6,19.06)" />
<linearGradient
 x1="67.98"
 y1="54.42"
 x2="227.3"
 y2="54.42"
 id="linearGradient3309"
 xlink:href="#linearGradient5451"
 gradientUnits="userSpaceOnUse"
 gradientTransform="matrix(0.7071,0.7071,-0.7071,0.7071,353.6,19.06)" />
<linearGradient
 x1="46.5"
 y1="94.57"
 x2="248.3"
 y2="94.57"
 id="linearGradient3311"
 xlink:href="#linearGradient5451"
 gradientUnits="userSpaceOnUse"
 gradientTransform="matrix(0.7071,0.7071,-0.7071,0.7071,353.6,19.06)" />
<linearGradient
 x1="46.5"
 y1="94.57"
 x2="248.3"
 y2="94.57"
 id="linearGradient3313"
 xlink:href="#linearGradient5451"
 gradientUnits="userSpaceOnUse"
 gradientTransform="matrix(0.7071,0.7071,-0.7071,0.7071,353.6,19.06)" />
<linearGradient
 x1="69.85"
 y1="139.3"
 x2="225.1"
 y2="139.3"
 id="linearGradient3315"
 xlink:href="#linearGradient5451"
 gradientUnits="userSpaceOnUse"
 gradientTransform="matrix(0.7071,0.7071,-0.7071,0.7071,353.6,19.06)" />
<linearGradient
 x1="69.85"
 y1="139.3"
 x2="225.1"
 y2="139.3"
 id="linearGradient3317"
 xlink:href="#linearGradient5451"
 gradientUnits="userSpaceOnUse"
 gradientTransform="matrix(0.7071,0.7071,-0.7071,0.7071,353.6,19.06)" />
<linearGradient
 x1="44.59"
 y1="167.2"
 x2="250.3"
 y2="167.2"
 id="linearGradient3319"
 xlink:href="#linearGradient5451"
 gradientUnits="userSpaceOnUse"
 gradientTransform="matrix(0.7071,0.7071,-0.7071,0.7071,353.6,19.06)" />
<linearGradient
 x1="44.59"
 y1="167.2"
 x2="250.3"
 y2="167.2"
 id="linearGradient3321"
 xlink:href="#linearGradient5451"
 gradientUnits="userSpaceOnUse"
 gradientTransform="matrix(0.7071,0.7071,-0.7071,0.7071,353.6,19.06)" />
<linearGradient
 x1="44.76"
 y1="292.5"
 x2="250.4"
 y2="292.5"
 id="linearGradient3323"
 xlink:href="#linearGradient5451"
 gradientUnits="userSpaceOnUse"
 gradientTransform="matrix(0.7071,0.7071,-0.7071,0.7071,353.6,19.06)" />
<linearGradient
 x1="44.76"
 y1="292.5"
 x2="250.4"
 y2="292.5"
 id="linearGradient3325"
 xlink:href="#linearGradient5451"
 gradientUnits="userSpaceOnUse"
 gradientTransform="matrix(0.7071,0.7071,-0.7071,0.7071,353.6,19.06)" />
<linearGradient
 x1="68.72"
 y1="320.4"
 x2="225.7"
 y2="320.4"
 id="linearGradient3327"
 xlink:href="#linearGradient5451"
 gradientUnits="userSpaceOnUse"
 gradientTransform="matrix(0.7071,0.7071,-0.7071,0.7071,353.6,19.06)" />
<linearGradient
 x1="68.72"
 y1="320.4"
 x2="225.7"
 y2="320.4"
 id="linearGradient3329"
 xlink:href="#linearGradient5451"
 gradientUnits="userSpaceOnUse"
 gradientTransform="matrix(0.7071,0.7071,-0.7071,0.7071,353.6,19.06)" />
<linearGradient
 x1="46.46"
 y1="365.4"
 x2="248.3"
 y2="365.4"
 id="linearGradient3331"
 xlink:href="#linearGradient5451"
 gradientUnits="userSpaceOnUse"
 gradientTransform="matrix(0.7071,0.7071,-0.7071,0.7071,353.6,19.06)" />
<linearGradient
 x1="46.46"
 y1="365.4"
 x2="248.3"
 y2="365.4"
 id="linearGradient3333"
 xlink:href="#linearGradient5451"
 gradientUnits="userSpaceOnUse"
 gradientTransform="matrix(0.7071,0.7071,-0.7071,0.7071,353.6,19.06)" />
<linearGradient
 x1="68.41"
 y1="405.6"
 x2="226.6"
 y2="405.6"
 id="linearGradient3335"
 xlink:href="#linearGradient5451"
 gradientUnits="userSpaceOnUse"
 gradientTransform="matrix(0.7071,0.7071,-0.7071,0.7071,353.6,19.06)" />
<linearGradient
 x1="62.87"
 y1="68.54"
 x2="232.2"
 y2="68.54"
 id="linearGradient3337"
 xlink:href="#linearGradient5451"
 gradientUnits="userSpaceOnUse"
 gradientTransform="matrix(0.7071,0.7071,-0.7071,0.7071,353.6,19.06)" />
<linearGradient
 x1="62.87"
 y1="68.54"
 x2="232.2"
 y2="68.54"
 id="linearGradient3339"
 xlink:href="#linearGradient5451"
 gradientUnits="userSpaceOnUse"
 gradientTransform="matrix(0.7071,0.7071,-0.7071,0.7071,353.6,19.06)" />
<linearGradient
 x1="64.75"
 y1="120.9"
 x2="230"
 y2="120.9"
 id="linearGradient3341"
 xlink:href="#linearGradient5451"
 gradientUnits="userSpaceOnUse"
 gradientTransform="matrix(0.7071,0.7071,-0.7071,0.7071,353.6,19.06)" />
<linearGradient
 x1="64.75"
 y1="120.9"
 x2="230"
 y2="120.9"
 id="linearGradient3343"
 xlink:href="#linearGradient5451"
 gradientUnits="userSpaceOnUse"
 gradientTransform="matrix(0.7071,0.7071,-0.7071,0.7071,353.6,19.06)" />
<linearGradient
 x1="64.75"
 y1="338.7"
 x2="230"
 y2="338.7"
 id="linearGradient3345"
 xlink:href="#linearGradient5451"
 gradientUnits="userSpaceOnUse"
 gradientTransform="matrix(0.7071,0.7071,-0.7071,0.7071,353.6,19.06)" />
<linearGradient
 x1="64.75"
 y1="338.7"
 x2="230"
 y2="338.7"
 id="linearGradient3347"
 xlink:href="#linearGradient5451"
 gradientUnits="userSpaceOnUse"
 gradientTransform="matrix(0.7071,0.7071,-0.7071,0.7071,353.6,19.06)" />
<linearGradient
 x1="62.98"
 y1="391.4"
 x2="232.1"
 y2="391.4"
 id="linearGradient3349"
 xlink:href="#linearGradient5451"
 gradientUnits="userSpaceOnUse"
 gradientTransform="matrix(0.7071,0.7071,-0.7071,0.7071,353.6,19.06)" />
<linearGradient
 x1="62.98"
 y1="391.4"
 x2="232.1"
 y2="391.4"
 id="linearGradient3351"
 xlink:href="#linearGradient5451"
 gradientUnits="userSpaceOnUse"
 gradientTransform="matrix(0.7071,0.7071,-0.7071,0.7071,353.6,19.06)" />
<linearGradient
 x1="46.91"
 y1="229.7"
 x2="247.6"
 y2="229.7"
 id="linearGradient3353"
 xlink:href="#linearGradient5852"
 gradientUnits="userSpaceOnUse"
 gradientTransform="matrix(0.7071,0.7071,-0.7071,0.7071,353.6,19.06)" />
<linearGradient
 x1="46.91"
 y1="229.7"
 x2="247.6"
 y2="229.7"
 id="linearGradient3355"
 xlink:href="#linearGradient5389"
 gradientUnits="userSpaceOnUse"
 gradientTransform="matrix(0.7071,0.7071,-0.7071,0.7071,353.6,19.06)" />
<linearGradient
 x1="46.91"
 y1="229.7"
 x2="247.6"
 y2="229.7"
 id="linearGradient3245"
 xlink:href="#linearGradient5389"
 gradientUnits="userSpaceOnUse"
 gradientTransform="matrix(0.0368,0.0368,-0.0368,0.0368,12.13,-4.789)" />
<linearGradient
 x1="62.98"
 y1="391.4"
 x2="232.1"
 y2="391.4"
 id="linearGradient3250"
 xlink:href="#linearGradient5451"
 gradientUnits="userSpaceOnUse"
 gradientTransform="matrix(0.0368,0.0368,-0.0368,0.0368,12.13,-4.789)" />
<linearGradient
 x1="64.75"
 y1="338.7"
 x2="230"
 y2="338.7"
 id="linearGradient3255"
 xlink:href="#linearGradient5451"
 gradientUnits="userSpaceOnUse"
 gradientTransform="matrix(0.0368,0.0368,-0.0368,0.0368,12.13,-4.789)" />
<linearGradient
 x1="64.75"
 y1="120.9"
 x2="230"
 y2="120.9"
 id="linearGradient3260"
 xlink:href="#linearGradient5451"
 gradientUnits="userSpaceOnUse"
 gradientTransform="matrix(0.0368,0.0368,-0.0368,0.0368,12.13,-4.789)" />
<linearGradient
 x1="62.87"
 y1="68.54"
 x2="232.2"
 y2="68.54"
 id="linearGradient3265"
 xlink:href="#linearGradient5451"
 gradientUnits="userSpaceOnUse"
 gradientTransform="matrix(0.0368,0.0368,-0.0368,0.0368,12.13,-4.789)" />
<linearGradient
 x1="46.46"
 y1="365.4"
 x2="248.3"
 y2="365.4"
 id="linearGradient3273"
 xlink:href="#linearGradient5451"
 gradientUnits="userSpaceOnUse"
 gradientTransform="matrix(0.0368,0.0368,-0.0368,0.0368,12.13,-4.789)" />
<linearGradient
 x1="68.72"
 y1="320.4"
 x2="225.7"
 y2="320.4"
 id="linearGradient3278"
 xlink:href="#linearGradient5451"
 gradientUnits="userSpaceOnUse"
 gradientTransform="matrix(0.0368,0.0368,-0.0368,0.0368,12.13,-4.789)" />
<linearGradient
 x1="44.76"
 y1="292.5"
 x2="250.4"
 y2="292.5"
 id="linearGradient3284"
 xlink:href="#linearGradient5451"
 gradientUnits="userSpaceOnUse"
 gradientTransform="matrix(0.0368,0.0368,-0.0368,0.0368,12.13,-4.789)" />
<linearGradient
 x1="44.59"
 y1="167.2"
 x2="250.3"
 y2="167.2"
 id="linearGradient3290"
 xlink:href="#linearGradient5451"
 gradientUnits="userSpaceOnUse"
 gradientTransform="matrix(0.0368,0.0368,-0.0368,0.0368,12.13,-4.789)" />
<linearGradient
 x1="69.85"
 y1="139.3"
 x2="225.1"
 y2="139.3"
 id="linearGradient3296"
 xlink:href="#linearGradient5451"
 gradientUnits="userSpaceOnUse"
 gradientTransform="matrix(0.0368,0.0368,-0.0368,0.0368,12.13,-4.789)" />
<linearGradient
 x1="46.5"
 y1="94.57"
 x2="248.3"
 y2="94.57"
 id="linearGradient3302"
 xlink:href="#linearGradient5451"
 gradientUnits="userSpaceOnUse"
 gradientTransform="matrix(0.0368,0.0368,-0.0368,0.0368,12.13,-4.789)" />
<linearGradient
 x1="67.98"
 y1="54.42"
 x2="227.3"
 y2="54.42"
 id="linearGradient3308"
 xlink:href="#linearGradient5451"
 gradientUnits="userSpaceOnUse"
 gradientTransform="matrix(0.0368,0.0368,-0.0368,0.0368,12.13,-4.789)" />
<linearGradient
 x1="245.9"
 y1="229.9"
 x2="256.8"
 y2="229.9"
 id="linearGradient3314"
 xlink:href="#linearGradient5451"
 gradientUnits="userSpaceOnUse"
 gradientTransform="matrix(0.0368,0.0368,-0.0368,0.0368,12.13,-4.789)" />
<linearGradient
 x1="255.8"
 y1="229.9"
 x2="312.2"
 y2="229.9"
 id="linearGradient3320"
 xlink:href="#linearGradient5451"
 gradientUnits="userSpaceOnUse"
 gradientTransform="matrix(0.0368,0.0368,-0.0368,0.0368,12.13,-4.789)" />
<linearGradient
 x1="313"
 y1="229.8"
 x2="337.2"
 y2="229.8"
 id="linearGradient3326"
 xlink:href="#linearGradient5451"
 gradientUnits="userSpaceOnUse"
 gradientTransform="matrix(0.0368,0.0368,-0.0368,0.0368,12.13,-4.789)" />
<linearGradient
 x1="685.8"
 y1="229.7"
 x2="706.2"
 y2="229.7"
 id="linearGradient3332"
 xlink:href="#linearGradient5451"
 gradientUnits="userSpaceOnUse"
 gradientTransform="matrix(0.0368,0.0368,-0.0368,0.0368,12.13,-4.789)" />
<linearGradient
 x1="668.6"
 y1="230.1"
 x2="684.4"
 y2="230.1"
 id="linearGradient3338"
 xlink:href="#linearGradient5451"
 gradientUnits="userSpaceOnUse"
 gradientTransform="matrix(0.0368,0.0368,-0.0368,0.0368,12.13,-4.789)" />
<linearGradient
 x1="338.4"
 y1="229.8"
 x2="668.5"
 y2="229.8"
 id="linearGradient3344"
 xlink:href="#linearGradient5451"
 gradientUnits="userSpaceOnUse"
 gradientTransform="matrix(0.0368,0.0368,-0.0368,0.0368,12.13,-4.789)" />
<linearGradient
 x1="67.98"
 y1="54.42"
 x2="227.3"
 y2="54.42"
 id="linearGradient3274"
 xlink:href="#linearGradient5451"
 gradientUnits="userSpaceOnUse"
 gradientTransform="matrix(-0.037,-0.0366,0.0366,-0.037,6.093,23.01)" />
</defs>
<g
 id="g4342">
<g
 id="g4320">
<path
 d="m 26.59,28.7 c -2.32,-1.42 -4.55,-3.52 -6.2,-5.83 -0.41,-0.57 -4.49,-5.44 -4.93,-5.88 -0.1,-0.1 0,-0.17 0.67,-0.84 l 0.76,-0.76 0.26,0.19 c 0.13,0.11 1.27,1.08 2.53,2.16 1.26,1.09 2.62,2.21 3.02,2.5 1.88,1.37 3.55,2.93 4.63,4.36 0.53,0.7 1.43,2.01 1.69,2.46 l 0.11,0.2 -0.91,0.94 -0.91,0.94 -0.72,-0.44 0,0 z"
 id="path5387"
 style="color:#000000;fill:#703b1b;fill-opacity:1;fill-rule:nonzero;stroke:url(#linearGradient3344);stroke-width:0.0743;stroke-linecap:butt;stroke-linejoin:miter;stroke-miterlimit:4;stroke-opacity:1;stroke-dasharray:none;stroke-dashoffset:0;marker:none;visibility:visible;display:inline;overflow:visible;enable-background:accumulate" />
<path
 d="m 28.04,29.49 c 0,-0.1 0,-0.15 -0.14,-0.25 -0.12,-0.12 -0.16,-0.14 -0.3,-0.14 l -0.15,0 0.82,-0.82 0.82,-0.82 0,0.15 c 0,0.18 0.21,0.39 0.38,0.43 l 0.11,0 -0.77,0.77 -0.77,0.77 0,-0.1 z"
 id="path5407"
 style="color:#000000;fill:#703b1b;fill-opacity:1;fill-rule:nonzero;stroke:url(#linearGradient3338);stroke-width:0.0371;stroke-linecap:butt;stroke-linejoin:miter;stroke-miterlimit:4;stroke-opacity:1;stroke-dasharray:none;stroke-dashoffset:0;marker:none;visibility:visible;display:inline;overflow:visible;enable-background:accumulate" />
<path
 d="m 29.33,29.86 c -0.11,0 -0.26,0.1 -0.35,0 -0.2,0 -0.88,-0.2 -0.88,-0.24 0,0 0.36,-0.37 0.8,-0.8 l 0.8,-0.78 0.11,0.39 c 0.1,0.22 0.11,0.48 0.11,0.57 0,0.37 -0.25,0.71 -0.59,0.82 l 0,0 z"
 id="path5433"
 style="color:#000000;fill:#82242d;fill-opacity:0;fill-rule:nonzero;stroke:#000000;stroke-width:0.0371;stroke-linecap:butt;stroke-linejoin:miter;stroke-miterlimit:4;stroke-opacity:1;stroke-dasharray:none;stroke-dashoffset:0;marker:none;visibility:visible;display:inline;overflow:visible;enable-background:accumulate" />
<path
 d="m 29.43,29.78 c -0.18,0.1 -0.49,0.1 -0.87,0 -0.19,-0.1 -0.36,-0.1 -0.38,-0.11 0,0 0.32,-0.36 0.73,-0.78 l 0.75,-0.75 0.1,0.18 c 0.12,0.38 0.18,0.76 0.13,0.93 -0.1,0.21 -0.25,0.45 -0.42,0.54 z"
 id="path5449"
 style="color:#000000;fill:#703b1b;fill-opacity:1;fill-rule:nonzero;stroke:url(#linearGradient3332);stroke-width:0.0371;stroke-linecap:butt;stroke-linejoin:miter;stroke-miterlimit:4;stroke-opacity:1;stroke-dasharray:none;stroke-dashoffset:0;marker:none;visibility:visible;display:inline;overflow:visible;enable-background:accumulate" />
<path
 d="m 15.01,16.93 c -0.23,0 -0.39,0 -0.53,-0.17 -0.13,-0.15 -0.18,-0.32 -0.16,-0.53 l 0,-0.17 0.8,-0.83 c 0.45,-0.45 0.85,-0.84 0.89,-0.86 0.18,-0.11 0.58,-0.1 0.74,0.1 0.12,0.11 0.19,0.4 0.16,0.57 l 0,0.16 -0.86,0.86 -0.86,0.86 -0.18,0 z"
 id="path5461"
 style="color:#000000;fill:#703b1b;fill-opacity:1;fill-rule:nonzero;stroke:url(#linearGradient3326);stroke-width:0.0371;stroke-linecap:butt;stroke-linejoin:miter;stroke-miterlimit:4;stroke-opacity:1;stroke-dasharray:none;stroke-dashoffset:0;marker:none;visibility:visible;display:inline;overflow:visible;enable-background:accumulate" />
<path
 d="m 14.29,15.84 c -0.57,-0.36 -0.94,-0.47 -1.53,-0.43 -0.44,0 -0.8,-0.36 -0.71,-0.79 0,-0.1 0,-0.24 0,-0.3 0,-0.1 0.1,-0.18 0.29,-0.46 0.59,-0.71 1.75,-1.8 1.89,-1.76 0,0 0.12,0 0.2,0 0.18,-0.1 0.41,-0.1 0.55,0 0.26,0.11 0.46,0.45 0.41,0.7 -0.1,0.41 0.1,1.03 0.39,1.44 l 0.1,0.13 -0.77,0.77 -0.77,0.78 -0.1,-0.1 z"
 id="path5471"
 style="color:#000000;fill:#703b1b;fill-opacity:1;fill-rule:nonzero;stroke:url(#linearGradient3320);stroke-width:0.0371;stroke-linecap:butt;stroke-linejoin:miter;stroke-miterlimit:4;stroke-opacity:1;stroke-dasharray:none;stroke-dashoffset:0;marker:none;visibility:visible;display:inline;overflow:visible;enable-background:accumulate" />
<path
 d="m 12,14.14 c -0.1,0 -0.16,0 -0.24,0 0,0 -0.1,0 -0.11,0 -0.1,0 -0.13,-0.1 -0.12,-0.11 0,0 0.39,-0.5 0.61,-0.75 0.39,-0.45 1.09,-1.12 1.55,-1.49 0.33,-0.28 0.4,-0.32 0.43,-0.3 0.1,0 0.1,0.15 0,0.25 0,0.1 0,0.18 0,0.22 0,0 0,0 0,0.1 -0.11,0.1 -0.59,0.48 -0.92,0.8 -0.38,0.37 -0.75,0.77 -1.05,1.13 l -0.15,0.18 0,0 z"
 id="path5481"
 style="color:#000000;fill:#703b1b;fill-opacity:1;fill-rule:nonzero;stroke:url(#linearGradient3314);stroke-width:0.0186;stroke-linecap:butt;stroke-linejoin:miter;stroke-miterlimit:4;stroke-opacity:1;stroke-dasharray:none;stroke-dashoffset:0;marker:none;visibility:visible;display:inline;overflow:visible;enable-background:accumulate" />
<path
 d="m 12.65,0.1948 c 0.68,0.234 1.46,0.6448 2.19,1.1542 0.54,0.385 1.55,1.383 1.93,1.914 0.55,0.764 1.09,1.789 1.31,2.48 l 0,0.161 -2.91,-2.917 -2.92,-2.917 0.36,0.1248 0,0 z"
 id="path5730"
 style="color:#000000;fill:#703b1b;fill-opacity:1;fill-rule:nonzero;stroke:url(#linearGradient3308);stroke-width:0.0371;stroke-linecap:butt;stroke-linejoin:miter;stroke-miterlimit:4;stroke-opacity:1;stroke-dasharray:none;stroke-dashoffset:0;marker:none;visibility:visible;display:inline;overflow:visible;enable-background:accumulate" />
<path
 d="M 10.2,1.77 C 10.04,1.469 10.02,1.094 10.1,0.7824 c 0.1,-0.2756 0.4,-0.5616 0.66,-0.6552 0.23,-0.078 0.53,-0.0832 0.75,-0.016 0.16,0.052 0.19,0.083 3.32,3.2138 3.15,3.157 3.16,3.162 3.21,3.318 0.13,0.411 0,0.79 -0.26,1.118 -0.17,0.177 -0.22,0.218 -0.4,0.286 -0.28,0.104 -0.52,0.114 -0.78,0.03 L 16.4,7.995 13.32,4.927 C 11.63,3.237 10.22,1.817 10.2,1.77 z"
 id="path5740"
 style="color:#000000;fill:#703b1b;fill-opacity:1;fill-rule:nonzero;stroke:url(#linearGradient3302);stroke-width:0.0371;stroke-linecap:butt;stroke-linejoin:miter;stroke-miterlimit:4;stroke-opacity:1;stroke-dasharray:none;stroke-dashoffset:0;marker:none;visibility:visible;display:inline;overflow:visible;enable-background:accumulate" />
<path
 d="M 9.335,3.408 C 9.74,3.419 10.07,3.138 10.15,2.722 l 0,-0.187 2.74,2.745 2.75,2.746 -0.17,0.01 C 15.04,8.066 14.7,8.468 14.74,8.91 l 0,0.172 -2.83,-2.84 -2.849,-2.839 0.234,0 z"
 id="path5750"
 style="color:#000000;fill:#703b1b;fill-opacity:1;fill-rule:nonzero;stroke:url(#linearGradient3296);stroke-width:0.0371;stroke-linecap:butt;stroke-linejoin:miter;stroke-miterlimit:4;stroke-opacity:1;stroke-dasharray:none;stroke-dashoffset:0;marker:none;visibility:visible;display:inline;overflow:visible;enable-background:accumulate" />
<path
 d="M 7.692,3.856 7.785,3.767 7.562,3.538 7.333,3.315 7.499,3.169 C 7.806,2.904 8.29,2.868 8.622,3.086 c 0.115,0.07 1.129,1.066 3.288,3.224 3.39,3.396 3.25,3.245 3.32,3.624 0,0.206 0,0.456 -0.15,0.676 -0.17,0.25 -0.2,0.25 -0.45,0 L 14.4,10.4 14.3,10.5 14.2,10.6 10.89,7.296 7.583,3.989 7.673,3.899 z"
 id="path5760"
 style="color:#000000;fill:#703b1b;fill-opacity:1;fill-rule:nonzero;stroke:url(#linearGradient3290);stroke-width:0.0371;stroke-linecap:butt;stroke-linejoin:miter;stroke-miterlimit:4;stroke-opacity:1;stroke-dasharray:none;stroke-dashoffset:0;marker:none;visibility:visible;display:inline;overflow:visible;enable-background:accumulate" />
<path
 d="M 3.001,8.406 C 2.887,8.057 2.975,7.683 3.235,7.423 l 0.115,-0.109 0.223,0.223 0.219,0.219 0.08,-0.08 0.08,-0.08 3.307,3.314 3.311,3.31 -0.1,0.1 -0.1,0.1 0.22,0.22 c 0.25,0.25 0.26,0.28 0,0.44 -0.29,0.19 -0.611,0.24 -0.92,0.13 L 9.558,15.1 6.314,11.85 3.069,8.608 3.001,8.406 z"
 id="path5770"
 style="color:#000000;fill:#703b1b;fill-opacity:1;fill-rule:nonzero;stroke:url(#linearGradient3284);stroke-width:0.0371;stroke-linecap:butt;stroke-linejoin:miter;stroke-miterlimit:4;stroke-opacity:1;stroke-dasharray:none;stroke-dashoffset:0;marker:none;visibility:visible;display:inline;overflow:visible;enable-background:accumulate" />
<path
 d="m 2.679,10.13 c 0.234,0 0.338,-0.1 0.52,-0.242 C 3.381,9.711 3.464,9.446 3.417,9.196 l -0.03,-0.161 2.876,2.875 2.875,2.87 -0.213,0 c -0.463,0 -0.822,0.25 -0.879,0.72 l -0.02,0.17 -2.761,-2.76 -2.761,-2.76 0.177,0 z"
 id="path5780"
 style="color:#000000;fill:#703b1b;fill-opacity:1;fill-rule:nonzero;stroke:url(#linearGradient3278);stroke-width:0.0371;stroke-linecap:butt;stroke-linejoin:miter;stroke-miterlimit:4;stroke-opacity:1;stroke-dasharray:none;stroke-dashoffset:0;marker:none;visibility:visible;display:inline;overflow:visible;enable-background:accumulate" />
<path
 d="M 0.136,11.55 C -0.15,10.67 0.6456,9.83 1.524,10.09 l 0.219,0.1 3.109,3.09 c 3.495,3.48 3.261,3.22 3.282,3.67 0.02,0.33 -0.07,0.57 -0.307,0.83 -0.161,0.18 -0.219,0.22 -0.401,0.29 -0.249,0.1 -0.556,0.1 -0.795,0 L 6.454,17.98 3.318,14.85 C 0.2036,11.73 0.1828,11.71 0.136,11.55 z"
 id="path5790"
 style="color:#000000;fill:#703b1b;fill-opacity:1;fill-rule:nonzero;stroke:url(#linearGradient3273);stroke-width:0.0371;stroke-linecap:butt;stroke-linejoin:miter;stroke-miterlimit:4;stroke-opacity:1;stroke-dasharray:none;stroke-dashoffset:0;marker:none;visibility:visible;display:inline;overflow:visible;enable-background:accumulate" />
<path
 d="m 11.8,0.174 c 0,-0.01 0.1,-0.047 0.19,-0.0832 l 0.16,-0.078 3.01,3.0052 3,3.006 0,0.07 c 0,0.04 -0.1,0.119 -0.1,0.182 l 0,0.114 L 14.9,3.289 C 13.19,1.578 11.8,0.1792 11.8,0.174 z"
 id="path5810"
 style="color:#000000;fill:#703b1b;fill-opacity:1;fill-rule:nonzero;stroke:url(#linearGradient3265);stroke-width:0.0186;stroke-linecap:butt;stroke-linejoin:miter;stroke-miterlimit:4;stroke-opacity:1;stroke-dasharray:none;stroke-dashoffset:0;marker:none;visibility:visible;display:inline;overflow:visible;enable-background:accumulate" />
<path
 d="m 10.07,2.301 c 0,-0.125 0,-0.302 0.12,-0.369 l 0,-0.03 3.03,3.021 3.03,3.026 -0.1,0.07 c -0.1,0.09 -0.2,0.119 -0.32,0.09 l -0.1,-0.03 -2.86,-2.86 C 10.35,2.623 10.09,2.363 10.07,2.301 z"
 id="path5820"
 style="color:#000000;fill:#703b1b;fill-opacity:1;fill-rule:nonzero;stroke:url(#linearGradient3260);stroke-width:0.0186;stroke-linecap:butt;stroke-linejoin:miter;stroke-miterlimit:4;stroke-opacity:1;stroke-dasharray:none;stroke-dashoffset:0;marker:none;visibility:visible;display:inline;overflow:visible;enable-background:accumulate" />
<path
 d="m 1.946,10.17 c 0.02,0 0.06,-0.1 0.104,-0.1 0.09,-0.1 0.26,-0.1 0.338,0 0.03,0 1.315,1.31 2.865,2.86 3,3 2.881,2.87 2.886,3 0,0.1 -0.04,0.19 -0.104,0.26 l -0.06,0.1 -3.026,-3.03 -3.026,-3.02 0.03,-0.1 z"
 id="path5830"
 style="color:#000000;fill:#703b1b;fill-opacity:1;fill-rule:nonzero;stroke:url(#linearGradient3255);stroke-width:0.0186;stroke-linecap:butt;stroke-linejoin:miter;stroke-miterlimit:4;stroke-opacity:1;stroke-dasharray:none;stroke-dashoffset:0;marker:none;visibility:visible;display:inline;overflow:visible;enable-background:accumulate" />
<path
 d="m 0.0996,11.97 c 0.0416,-0.1 0.0832,-0.17 0.0884,-0.17 0.01,0 1.404,1.39 3.104,3.1 l 3.1,3.1 -0.177,0.1 -0.172,0.1 -3.011,-3.01 -3.0104,-3 0.078,-0.18 z"
 id="path5840"
 style="color:#000000;fill:#703b1b;fill-opacity:1;fill-rule:nonzero;stroke:url(#linearGradient3250);stroke-width:0.0186;stroke-linecap:butt;stroke-linejoin:miter;stroke-miterlimit:4;stroke-opacity:1;stroke-dasharray:none;stroke-dashoffset:0;marker:none;visibility:visible;display:inline;overflow:visible;enable-background:accumulate" />
<path
 d="m 5.424,5.395 1.784,-1.789 3.672,3.682 3.68,3.672 -0.27,0.27 c -0.15,0.15 -0.44,0.4 -0.65,0.57 -0.49,0.39 -1.41,1.32 -1.82,1.83 -0.18,0.21 -0.44,0.51 -0.58,0.65 L 10.99,14.54 7.312,10.85 3.636,7.178 5.424,5.395 z"
 id="path5850"
 style="color:#000000;fill:#cca876;fill-opacity:1;fill-rule:nonzero;stroke:url(#linearGradient3245);stroke-width:0.0371;stroke-linecap:butt;stroke-linejoin:miter;stroke-miterlimit:4;stroke-opacity:1;stroke-dasharray:none;stroke-dashoffset:0;marker:none;visibility:visible;display:inline;overflow:visible;enable-background:accumulate" />
<path
 d="M 5.551,18.03 C 4.87,17.8 4.088,17.4 3.356,16.89 2.815,16.5 1.8,15.51 1.418,14.98 0.8643,14.22 0.3199,13.19 0.0969,12.5 l -7e-4,-0.16 2.9228,2.91 2.933,2.91 -0.361,-0.13 0,0 z"
 id="path3271"
 style="color:#000000;fill:#703b1b;fill-opacity:1;fill-rule:nonzero;stroke:url(#linearGradient3274);stroke-width:0.0371;stroke-linecap:butt;stroke-linejoin:miter;stroke-miterlimit:4;stroke-opacity:1;stroke-dasharray:none;stroke-dashoffset:0;marker:none;visibility:visible;display:inline;overflow:visible;enable-background:accumulate" />
</g>
</g>
</svg>
