<?xml version="1.0" encoding="UTF-8" standalone="no"?>
<!-- Created with Inkscape (http://www.inkscape.org/) -->

<svg
 xmlns:dc="http://purl.org/dc/elements/1.1/"
 xmlns:cc="http://creativecommons.org/ns#"
 xmlns:rdf="http://www.w3.org/1999/02/22-rdf-syntax-ns#"
 xmlns:svg="http://www.w3.org/2000/svg"
 xmlns="http://www.w3.org/2000/svg"
 xmlns:xlink="http://www.w3.org/1999/xlink"
 version="1.1"
 width="33.5"
 height="24.6"
 id="svg3069">
<metadata
 id="metadata3151">
<rdf:RDF>
<cc:Work
 rdf:about="">
<dc:format>image/svg+xml</dc:format>
<dc:type
 rdf:resource="http://purl.org/dc/dcmitype/StillImage" />
<dc:title></dc:title>
</cc:Work>
</rdf:RDF>
</metadata>
<defs
 id="defs3071">
<linearGradient
 id="linearGradient5852">
<stop
 id="stop5854"
 style="stop-color:#cca876;stop-opacity:1"
 offset="0" />
<stop
 id="stop5860"
 style="stop-color:#cca876;stop-opacity:0.298"
 offset="0.5" />
<stop
 id="stop5856"
 style="stop-color:#cca876;stop-opacity:1"
 offset="1" />
</linearGradient>
<linearGradient
 id="linearGradient5451">
<stop
 id="stop5453"
 style="stop-color:#703b1b;stop-opacity:1"
 offset="0" />
<stop
 id="stop5459"
 style="stop-color:#703b1b;stop-opacity:0.627"
 offset="0.5" />
<stop
 id="stop5455"
 style="stop-color:#703b1b;stop-opacity:1"
 offset="1" />
</linearGradient>
<linearGradient
 id="linearGradient5423">
<stop
 id="stop5425"
 style="stop-color:#703b1b;stop-opacity:1"
 offset="0" />
<stop
 id="stop5431"
 style="stop-color:#703b1b;stop-opacity:0.627"
 offset="0.5" />
<stop
 id="stop5427"
 style="stop-color:#703b1b;stop-opacity:1"
 offset="1" />
</linearGradient>
<linearGradient
 id="linearGradient5389">
<stop
 id="stop5391"
 style="stop-color:#703b1b;stop-opacity:1"
 offset="0" />
<stop
 id="stop5405"
 style="stop-color:#703b1b;stop-opacity:0.627"
 offset="0.5" />
<stop
 id="stop5403"
 style="stop-color:#703b1b;stop-opacity:1"
 offset="1" />
</linearGradient>
<linearGradient
 x1="68.4"
 y1="406"
 x2="227"
 y2="406"
 id="linearGradient7209"
 xlink:href="#linearGradient6006"
 gradientUnits="userSpaceOnUse"
 gradientTransform="matrix(0.052,0,0,0.052,-2.29,-2.32)" />
<linearGradient
 x1="223"
 y1="517"
 x2="303"
 y2="517"
 id="linearGradient3283"
 xlink:href="#linearGradient5389"
 gradientUnits="userSpaceOnUse"
 gradientTransform="matrix(0.707,-0.707,0.707,0.707,-4.34,358)" />
<linearGradient
 x1="338"
 y1="230"
 x2="668"
 y2="230"
 id="linearGradient3285"
 xlink:href="#linearGradient5451"
 gradientUnits="userSpaceOnUse"
 gradientTransform="matrix(0.707,0.707,-0.707,0.707,354,19.1)" />
<linearGradient
 x1="240"
 y1="690"
 x2="285"
 y2="690"
 id="linearGradient3287"
 xlink:href="#linearGradient5423"
 gradientUnits="userSpaceOnUse"
 gradientTransform="matrix(0.707,-0.707,0.707,0.707,-4.34,358)" />
<linearGradient
 x1="669"
 y1="230"
 x2="684"
 y2="230"
 id="linearGradient3289"
 xlink:href="#linearGradient5451"
 gradientUnits="userSpaceOnUse"
 gradientTransform="matrix(0.707,0.707,-0.707,0.707,354,19.1)" />
<linearGradient
 x1="242"
 y1="710"
 x2="284"
 y2="710"
 id="linearGradient3291"
 xlink:href="#linearGradient5451"
 gradientUnits="userSpaceOnUse"
 gradientTransform="matrix(0.707,-0.707,0.707,0.707,-4.34,358)" />
<linearGradient
 x1="686"
 y1="230"
 x2="706"
 y2="230"
 id="linearGradient3293"
 xlink:href="#linearGradient5451"
 gradientUnits="userSpaceOnUse"
 gradientTransform="matrix(0.707,0.707,-0.707,0.707,354,19.1)" />
<linearGradient
 x1="232"
 y1="339"
 x2="294"
 y2="339"
 id="linearGradient3295"
 xlink:href="#linearGradient5451"
 gradientUnits="userSpaceOnUse"
 gradientTransform="matrix(0.707,-0.707,0.707,0.707,-4.34,358)" />
<linearGradient
 x1="313"
 y1="230"
 x2="337"
 y2="230"
 id="linearGradient3297"
 xlink:href="#linearGradient5451"
 gradientUnits="userSpaceOnUse"
 gradientTransform="matrix(0.707,0.707,-0.707,0.707,354,19.1)" />
<linearGradient
 x1="222"
 y1="298"
 x2="304"
 y2="298"
 id="linearGradient3299"
 xlink:href="#linearGradient5451"
 gradientUnits="userSpaceOnUse"
 gradientTransform="matrix(0.707,-0.707,0.707,0.707,-4.34,358)" />
<linearGradient
 x1="256"
 y1="230"
 x2="312"
 y2="230"
 id="linearGradient3301"
 xlink:href="#linearGradient5451"
 gradientUnits="userSpaceOnUse"
 gradientTransform="matrix(0.707,0.707,-0.707,0.707,354,19.1)" />
<linearGradient
 x1="228"
 y1="265"
 x2="298"
 y2="265"
 id="linearGradient3303"
 xlink:href="#linearGradient5451"
 gradientUnits="userSpaceOnUse"
 gradientTransform="matrix(0.707,-0.707,0.707,0.707,-4.34,358)" />
<linearGradient
 x1="246"
 y1="230"
 x2="257"
 y2="230"
 id="linearGradient3305"
 xlink:href="#linearGradient5451"
 gradientUnits="userSpaceOnUse"
 gradientTransform="matrix(0.707,0.707,-0.707,0.707,354,19.1)" />
<linearGradient
 x1="68"
 y1="54.4"
 x2="227"
 y2="54.4"
 id="linearGradient3307"
 xlink:href="#linearGradient5451"
 gradientUnits="userSpaceOnUse"
 gradientTransform="matrix(0.707,0.707,-0.707,0.707,354,19.1)" />
<linearGradient
 x1="68"
 y1="54.4"
 x2="227"
 y2="54.4"
 id="linearGradient3309"
 xlink:href="#linearGradient5451"
 gradientUnits="userSpaceOnUse"
 gradientTransform="matrix(0.707,0.707,-0.707,0.707,354,19.1)" />
<linearGradient
 x1="46.5"
 y1="94.6"
 x2="248"
 y2="94.6"
 id="linearGradient3311"
 xlink:href="#linearGradient5451"
 gradientUnits="userSpaceOnUse"
 gradientTransform="matrix(0.707,0.707,-0.707,0.707,354,19.1)" />
<linearGradient
 x1="46.5"
 y1="94.6"
 x2="248"
 y2="94.6"
 id="linearGradient3313"
 xlink:href="#linearGradient5451"
 gradientUnits="userSpaceOnUse"
 gradientTransform="matrix(0.707,0.707,-0.707,0.707,354,19.1)" />
<linearGradient
 x1="69.8"
 y1="139"
 x2="225"
 y2="139"
 id="linearGradient3315"
 xlink:href="#linearGradient5451"
 gradientUnits="userSpaceOnUse"
 gradientTransform="matrix(0.707,0.707,-0.707,0.707,354,19.1)" />
<linearGradient
 x1="69.8"
 y1="139"
 x2="225"
 y2="139"
 id="linearGradient3317"
 xlink:href="#linearGradient5451"
 gradientUnits="userSpaceOnUse"
 gradientTransform="matrix(0.707,0.707,-0.707,0.707,354,19.1)" />
<linearGradient
 x1="44.6"
 y1="167"
 x2="250"
 y2="167"
 id="linearGradient3319"
 xlink:href="#linearGradient5451"
 gradientUnits="userSpaceOnUse"
 gradientTransform="matrix(0.707,0.707,-0.707,0.707,354,19.1)" />
<linearGradient
 x1="44.6"
 y1="167"
 x2="250"
 y2="167"
 id="linearGradient3321"
 xlink:href="#linearGradient5451"
 gradientUnits="userSpaceOnUse"
 gradientTransform="matrix(0.707,0.707,-0.707,0.707,354,19.1)" />
<linearGradient
 x1="44.8"
 y1="292"
 x2="250"
 y2="292"
 id="linearGradient3323"
 xlink:href="#linearGradient5451"
 gradientUnits="userSpaceOnUse"
 gradientTransform="matrix(0.707,0.707,-0.707,0.707,354,19.1)" />
<linearGradient
 x1="44.8"
 y1="292"
 x2="250"
 y2="292"
 id="linearGradient3325"
 xlink:href="#linearGradient5451"
 gradientUnits="userSpaceOnUse"
 gradientTransform="matrix(0.707,0.707,-0.707,0.707,354,19.1)" />
<linearGradient
 x1="68.7"
 y1="320"
 x2="226"
 y2="320"
 id="linearGradient3327"
 xlink:href="#linearGradient5451"
 gradientUnits="userSpaceOnUse"
 gradientTransform="matrix(0.707,0.707,-0.707,0.707,354,19.1)" />
<linearGradient
 x1="68.7"
 y1="320"
 x2="226"
 y2="320"
 id="linearGradient3329"
 xlink:href="#linearGradient5451"
 gradientUnits="userSpaceOnUse"
 gradientTransform="matrix(0.707,0.707,-0.707,0.707,354,19.1)" />
<linearGradient
 x1="46.5"
 y1="365"
 x2="248"
 y2="365"
 id="linearGradient3331"
 xlink:href="#linearGradient5451"
 gradientUnits="userSpaceOnUse"
 gradientTransform="matrix(0.707,0.707,-0.707,0.707,354,19.1)" />
<linearGradient
 x1="46.5"
 y1="365"
 x2="248"
 y2="365"
 id="linearGradient3333"
 xlink:href="#linearGradient5451"
 gradientUnits="userSpaceOnUse"
 gradientTransform="matrix(0.707,0.707,-0.707,0.707,354,19.1)" />
<linearGradient
 x1="68.4"
 y1="406"
 x2="227"
 y2="406"
 id="linearGradient3335"
 xlink:href="#linearGradient5451"
 gradientUnits="userSpaceOnUse"
 gradientTransform="matrix(0.707,0.707,-0.707,0.707,354,19.1)" />
<linearGradient
 x1="62.9"
 y1="68.5"
 x2="232"
 y2="68.5"
 id="linearGradient3337"
 xlink:href="#linearGradient5451"
 gradientUnits="userSpaceOnUse"
 gradientTransform="matrix(0.707,0.707,-0.707,0.707,354,19.1)" />
<linearGradient
 x1="62.9"
 y1="68.5"
 x2="232"
 y2="68.5"
 id="linearGradient3339"
 xlink:href="#linearGradient5451"
 gradientUnits="userSpaceOnUse"
 gradientTransform="matrix(0.707,0.707,-0.707,0.707,354,19.1)" />
<linearGradient
 x1="64.8"
 y1="121"
 x2="230"
 y2="121"
 id="linearGradient3341"
 xlink:href="#linearGradient5451"
 gradientUnits="userSpaceOnUse"
 gradientTransform="matrix(0.707,0.707,-0.707,0.707,354,19.1)" />
<linearGradient
 x1="64.8"
 y1="121"
 x2="230"
 y2="121"
 id="linearGradient3343"
 xlink:href="#linearGradient5451"
 gradientUnits="userSpaceOnUse"
 gradientTransform="matrix(0.707,0.707,-0.707,0.707,354,19.1)" />
<linearGradient
 x1="64.8"
 y1="339"
 x2="230"
 y2="339"
 id="linearGradient3345"
 xlink:href="#linearGradient5451"
 gradientUnits="userSpaceOnUse"
 gradientTransform="matrix(0.707,0.707,-0.707,0.707,354,19.1)" />
<linearGradient
 x1="64.8"
 y1="339"
 x2="230"
 y2="339"
 id="linearGradient3347"
 xlink:href="#linearGradient5451"
 gradientUnits="userSpaceOnUse"
 gradientTransform="matrix(0.707,0.707,-0.707,0.707,354,19.1)" />
<linearGradient
 x1="63"
 y1="391"
 x2="232"
 y2="391"
 id="linearGradient3349"
 xlink:href="#linearGradient5451"
 gradientUnits="userSpaceOnUse"
 gradientTransform="matrix(0.707,0.707,-0.707,0.707,354,19.1)" />
<linearGradient
 x1="63"
 y1="391"
 x2="232"
 y2="391"
 id="linearGradient3351"
 xlink:href="#linearGradient5451"
 gradientUnits="userSpaceOnUse"
 gradientTransform="matrix(0.707,0.707,-0.707,0.707,354,19.1)" />
<linearGradient
 x1="46.9"
 y1="230"
 x2="248"
 y2="230"
 id="linearGradient3353"
 xlink:href="#linearGradient5852"
 gradientUnits="userSpaceOnUse"
 gradientTransform="matrix(0.707,0.707,-0.707,0.707,354,19.1)" />
<linearGradient
 x1="46.9"
 y1="230"
 x2="248"
 y2="230"
 id="linearGradient3355"
 xlink:href="#linearGradient5389"
 gradientUnits="userSpaceOnUse"
 gradientTransform="matrix(0.707,0.707,-0.707,0.707,354,19.1)" />
<linearGradient
 x1="223"
 y1="517"
 x2="303"
 y2="517"
 id="linearGradient3374"
 xlink:href="#linearGradient5389"
 gradientUnits="userSpaceOnUse"
 gradientTransform="matrix(0.707,-0.707,0.707,0.707,-4.34,358)" />
<linearGradient
 x1="338"
 y1="230"
 x2="668"
 y2="230"
 id="linearGradient3376"
 xlink:href="#linearGradient5451"
 gradientUnits="userSpaceOnUse"
 gradientTransform="matrix(0.707,0.707,-0.707,0.707,354,19.1)" />
<linearGradient
 x1="240"
 y1="690"
 x2="285"
 y2="690"
 id="linearGradient3378"
 xlink:href="#linearGradient5423"
 gradientUnits="userSpaceOnUse"
 gradientTransform="matrix(0.707,-0.707,0.707,0.707,-4.34,358)" />
<linearGradient
 x1="669"
 y1="230"
 x2="684"
 y2="230"
 id="linearGradient3380"
 xlink:href="#linearGradient5451"
 gradientUnits="userSpaceOnUse"
 gradientTransform="matrix(0.707,0.707,-0.707,0.707,354,19.1)" />
<linearGradient
 x1="242"
 y1="710"
 x2="284"
 y2="710"
 id="linearGradient3382"
 xlink:href="#linearGradient5451"
 gradientUnits="userSpaceOnUse"
 gradientTransform="matrix(0.707,-0.707,0.707,0.707,-4.34,358)" />
<linearGradient
 x1="686"
 y1="230"
 x2="706"
 y2="230"
 id="linearGradient3384"
 xlink:href="#linearGradient5451"
 gradientUnits="userSpaceOnUse"
 gradientTransform="matrix(0.707,0.707,-0.707,0.707,354,19.1)" />
<linearGradient
 x1="232"
 y1="339"
 x2="294"
 y2="339"
 id="linearGradient3386"
 xlink:href="#linearGradient5451"
 gradientUnits="userSpaceOnUse"
 gradientTransform="matrix(0.707,-0.707,0.707,0.707,-4.34,358)" />
<linearGradient
 x1="313"
 y1="230"
 x2="337"
 y2="230"
 id="linearGradient3388"
 xlink:href="#linearGradient5451"
 gradientUnits="userSpaceOnUse"
 gradientTransform="matrix(0.707,0.707,-0.707,0.707,354,19.1)" />
<linearGradient
 x1="222"
 y1="298"
 x2="304"
 y2="298"
 id="linearGradient3390"
 xlink:href="#linearGradient5451"
 gradientUnits="userSpaceOnUse"
 gradientTransform="matrix(0.707,-0.707,0.707,0.707,-4.34,358)" />
<linearGradient
 x1="256"
 y1="230"
 x2="312"
 y2="230"
 id="linearGradient3392"
 xlink:href="#linearGradient5451"
 gradientUnits="userSpaceOnUse"
 gradientTransform="matrix(0.707,0.707,-0.707,0.707,354,19.1)" />
<linearGradient
 x1="228"
 y1="265"
 x2="298"
 y2="265"
 id="linearGradient3394"
 xlink:href="#linearGradient5451"
 gradientUnits="userSpaceOnUse"
 gradientTransform="matrix(0.707,-0.707,0.707,0.707,-4.34,358)" />
<linearGradient
 x1="246"
 y1="230"
 x2="257"
 y2="230"
 id="linearGradient3396"
 xlink:href="#linearGradient5451"
 gradientUnits="userSpaceOnUse"
 gradientTransform="matrix(0.707,0.707,-0.707,0.707,354,19.1)" />
<linearGradient
 x1="68"
 y1="54.4"
 x2="227"
 y2="54.4"
 id="linearGradient3398"
 xlink:href="#linearGradient5451"
 gradientUnits="userSpaceOnUse"
 gradientTransform="matrix(0.707,0.707,-0.707,0.707,354,19.1)" />
<linearGradient
 x1="68"
 y1="54.4"
 x2="227"
 y2="54.4"
 id="linearGradient3400"
 xlink:href="#linearGradient5451"
 gradientUnits="userSpaceOnUse"
 gradientTransform="matrix(0.707,0.707,-0.707,0.707,354,19.1)" />
<linearGradient
 x1="46.5"
 y1="94.6"
 x2="248"
 y2="94.6"
 id="linearGradient3402"
 xlink:href="#linearGradient5451"
 gradientUnits="userSpaceOnUse"
 gradientTransform="matrix(0.707,0.707,-0.707,0.707,354,19.1)" />
<linearGradient
 x1="46.5"
 y1="94.6"
 x2="248"
 y2="94.6"
 id="linearGradient3404"
 xlink:href="#linearGradient5451"
 gradientUnits="userSpaceOnUse"
 gradientTransform="matrix(0.707,0.707,-0.707,0.707,354,19.1)" />
<linearGradient
 x1="69.8"
 y1="139"
 x2="225"
 y2="139"
 id="linearGradient3406"
 xlink:href="#linearGradient5451"
 gradientUnits="userSpaceOnUse"
 gradientTransform="matrix(0.707,0.707,-0.707,0.707,354,19.1)" />
<linearGradient
 x1="69.8"
 y1="139"
 x2="225"
 y2="139"
 id="linearGradient3408"
 xlink:href="#linearGradient5451"
 gradientUnits="userSpaceOnUse"
 gradientTransform="matrix(0.707,0.707,-0.707,0.707,354,19.1)" />
<linearGradient
 x1="44.6"
 y1="167"
 x2="250"
 y2="167"
 id="linearGradient3410"
 xlink:href="#linearGradient5451"
 gradientUnits="userSpaceOnUse"
 gradientTransform="matrix(0.707,0.707,-0.707,0.707,354,19.1)" />
<linearGradient
 x1="44.6"
 y1="167"
 x2="250"
 y2="167"
 id="linearGradient3412"
 xlink:href="#linearGradient5451"
 gradientUnits="userSpaceOnUse"
 gradientTransform="matrix(0.707,0.707,-0.707,0.707,354,19.1)" />
<linearGradient
 x1="44.8"
 y1="292"
 x2="250"
 y2="292"
 id="linearGradient3414"
 xlink:href="#linearGradient5451"
 gradientUnits="userSpaceOnUse"
 gradientTransform="matrix(0.707,0.707,-0.707,0.707,354,19.1)" />
<linearGradient
 x1="44.8"
 y1="292"
 x2="250"
 y2="292"
 id="linearGradient3416"
 xlink:href="#linearGradient5451"
 gradientUnits="userSpaceOnUse"
 gradientTransform="matrix(0.707,0.707,-0.707,0.707,354,19.1)" />
<linearGradient
 x1="68.7"
 y1="320"
 x2="226"
 y2="320"
 id="linearGradient3418"
 xlink:href="#linearGradient5451"
 gradientUnits="userSpaceOnUse"
 gradientTransform="matrix(0.707,0.707,-0.707,0.707,354,19.1)" />
<linearGradient
 x1="68.7"
 y1="320"
 x2="226"
 y2="320"
 id="linearGradient3420"
 xlink:href="#linearGradient5451"
 gradientUnits="userSpaceOnUse"
 gradientTransform="matrix(0.707,0.707,-0.707,0.707,354,19.1)" />
<linearGradient
 x1="46.5"
 y1="365"
 x2="248"
 y2="365"
 id="linearGradient3422"
 xlink:href="#linearGradient5451"
 gradientUnits="userSpaceOnUse"
 gradientTransform="matrix(0.707,0.707,-0.707,0.707,354,19.1)" />
<linearGradient
 x1="46.5"
 y1="365"
 x2="248"
 y2="365"
 id="linearGradient3424"
 xlink:href="#linearGradient5451"
 gradientUnits="userSpaceOnUse"
 gradientTransform="matrix(0.707,0.707,-0.707,0.707,354,19.1)" />
<linearGradient
 x1="68.4"
 y1="406"
 x2="227"
 y2="406"
 id="linearGradient3426"
 xlink:href="#linearGradient5451"
 gradientUnits="userSpaceOnUse"
 gradientTransform="matrix(0.707,0.707,-0.707,0.707,354,19.1)" />
<linearGradient
 x1="62.9"
 y1="68.5"
 x2="232"
 y2="68.5"
 id="linearGradient3428"
 xlink:href="#linearGradient5451"
 gradientUnits="userSpaceOnUse"
 gradientTransform="matrix(0.707,0.707,-0.707,0.707,354,19.1)" />
<linearGradient
 x1="62.9"
 y1="68.5"
 x2="232"
 y2="68.5"
 id="linearGradient3430"
 xlink:href="#linearGradient5451"
 gradientUnits="userSpaceOnUse"
 gradientTransform="matrix(0.707,0.707,-0.707,0.707,354,19.1)" />
<linearGradient
 x1="64.8"
 y1="121"
 x2="230"
 y2="121"
 id="linearGradient3432"
 xlink:href="#linearGradient5451"
 gradientUnits="userSpaceOnUse"
 gradientTransform="matrix(0.707,0.707,-0.707,0.707,354,19.1)" />
<linearGradient
 x1="64.8"
 y1="121"
 x2="230"
 y2="121"
 id="linearGradient3434"
 xlink:href="#linearGradient5451"
 gradientUnits="userSpaceOnUse"
 gradientTransform="matrix(0.707,0.707,-0.707,0.707,354,19.1)" />
<linearGradient
 x1="64.8"
 y1="339"
 x2="230"
 y2="339"
 id="linearGradient3436"
 xlink:href="#linearGradient5451"
 gradientUnits="userSpaceOnUse"
 gradientTransform="matrix(0.707,0.707,-0.707,0.707,354,19.1)" />
<linearGradient
 x1="64.8"
 y1="339"
 x2="230"
 y2="339"
 id="linearGradient3438"
 xlink:href="#linearGradient5451"
 gradientUnits="userSpaceOnUse"
 gradientTransform="matrix(0.707,0.707,-0.707,0.707,354,19.1)" />
<linearGradient
 x1="63"
 y1="391"
 x2="232"
 y2="391"
 id="linearGradient3440"
 xlink:href="#linearGradient5451"
 gradientUnits="userSpaceOnUse"
 gradientTransform="matrix(0.707,0.707,-0.707,0.707,354,19.1)" />
<linearGradient
 x1="63"
 y1="391"
 x2="232"
 y2="391"
 id="linearGradient3442"
 xlink:href="#linearGradient5451"
 gradientUnits="userSpaceOnUse"
 gradientTransform="matrix(0.707,0.707,-0.707,0.707,354,19.1)" />
<linearGradient
 x1="46.9"
 y1="230"
 x2="248"
 y2="230"
 id="linearGradient3444"
 xlink:href="#linearGradient5852"
 gradientUnits="userSpaceOnUse"
 gradientTransform="matrix(0.707,0.707,-0.707,0.707,354,19.1)" />
<linearGradient
 x1="46.9"
 y1="230"
 x2="248"
 y2="230"
 id="linearGradient3446"
 xlink:href="#linearGradient5389"
 gradientUnits="userSpaceOnUse"
 gradientTransform="matrix(0.707,0.707,-0.707,0.707,354,19.1)" />
<linearGradient
 x1="46.9"
 y1="230"
 x2="248"
 y2="230"
 id="linearGradient3451"
 xlink:href="#linearGradient5389"
 gradientUnits="userSpaceOnUse"
 gradientTransform="matrix(0.052,0,0,0.052,-2.27,-2.27)" />
<linearGradient
 x1="63"
 y1="391"
 x2="232"
 y2="391"
 id="linearGradient3456"
 xlink:href="#linearGradient5451"
 gradientUnits="userSpaceOnUse"
 gradientTransform="matrix(0.052,0,0,0.052,-2.27,-2.27)" />
<linearGradient
 x1="64.8"
 y1="339"
 x2="230"
 y2="339"
 id="linearGradient3461"
 xlink:href="#linearGradient5451"
 gradientUnits="userSpaceOnUse"
 gradientTransform="matrix(0.052,0,0,0.052,-2.27,-2.27)" />
<linearGradient
 x1="64.8"
 y1="121"
 x2="230"
 y2="121"
 id="linearGradient3466"
 xlink:href="#linearGradient5451"
 gradientUnits="userSpaceOnUse"
 gradientTransform="matrix(0.052,0,0,0.052,-2.27,-2.27)" />
<linearGradient
 x1="62.9"
 y1="68.5"
 x2="232"
 y2="68.5"
 id="linearGradient3471"
 xlink:href="#linearGradient5451"
 gradientUnits="userSpaceOnUse"
 gradientTransform="matrix(0.052,0,0,0.052,-2.27,-2.27)" />
<linearGradient
 x1="46.5"
 y1="365"
 x2="248"
 y2="365"
 id="linearGradient3479"
 xlink:href="#linearGradient5451"
 gradientUnits="userSpaceOnUse"
 gradientTransform="matrix(0.052,0,0,0.052,-2.27,-2.27)" />
<linearGradient
 x1="68.7"
 y1="320"
 x2="226"
 y2="320"
 id="linearGradient3484"
 xlink:href="#linearGradient5451"
 gradientUnits="userSpaceOnUse"
 gradientTransform="matrix(0.052,0,0,0.052,-2.27,-2.27)" />
<linearGradient
 x1="44.8"
 y1="292"
 x2="250"
 y2="292"
 id="linearGradient3489"
 xlink:href="#linearGradient5451"
 gradientUnits="userSpaceOnUse"
 gradientTransform="matrix(0.052,0,0,0.052,-2.27,-2.27)" />
<linearGradient
 x1="44.6"
 y1="167"
 x2="250"
 y2="167"
 id="linearGradient3494"
 xlink:href="#linearGradient5451"
 gradientUnits="userSpaceOnUse"
 gradientTransform="matrix(0.052,0,0,0.052,-2.27,-2.27)" />
<linearGradient
 x1="69.8"
 y1="139"
 x2="225"
 y2="139"
 id="linearGradient3499"
 xlink:href="#linearGradient5451"
 gradientUnits="userSpaceOnUse"
 gradientTransform="matrix(0.052,0,0,0.052,-2.27,-2.27)" />
<linearGradient
 x1="46.5"
 y1="94.6"
 x2="248"
 y2="94.6"
 id="linearGradient3504"
 xlink:href="#linearGradient5451"
 gradientUnits="userSpaceOnUse"
 gradientTransform="matrix(0.052,0,0,0.052,-2.27,-2.27)" />
<linearGradient
 x1="68"
 y1="54.4"
 x2="227"
 y2="54.4"
 id="linearGradient3509"
 xlink:href="#linearGradient5451"
 gradientUnits="userSpaceOnUse"
 gradientTransform="matrix(0.052,0,0,0.052,-2.27,-2.27)" />
<linearGradient
 x1="246"
 y1="230"
 x2="257"
 y2="230"
 id="linearGradient3514"
 xlink:href="#linearGradient5451"
 gradientUnits="userSpaceOnUse"
 gradientTransform="matrix(0.052,0,0,0.052,-2.27,-2.27)" />
<linearGradient
 x1="256"
 y1="230"
 x2="312"
 y2="230"
 id="linearGradient3519"
 xlink:href="#linearGradient5451"
 gradientUnits="userSpaceOnUse"
 gradientTransform="matrix(0.052,0,0,0.052,-2.27,-2.27)" />
<linearGradient
 x1="313"
 y1="230"
 x2="337"
 y2="230"
 id="linearGradient3524"
 xlink:href="#linearGradient5451"
 gradientUnits="userSpaceOnUse"
 gradientTransform="matrix(0.052,0,0,0.052,-2.27,-2.27)" />
<linearGradient
 x1="686"
 y1="230"
 x2="706"
 y2="230"
 id="linearGradient3529"
 xlink:href="#linearGradient5451"
 gradientUnits="userSpaceOnUse"
 gradientTransform="matrix(0.052,0,0,0.052,-2.27,-2.27)" />
<linearGradient
 x1="669"
 y1="230"
 x2="684"
 y2="230"
 id="linearGradient3535"
 xlink:href="#linearGradient5451"
 gradientUnits="userSpaceOnUse"
 gradientTransform="matrix(0.052,0,0,0.052,-2.27,-2.27)" />
<linearGradient
 x1="338"
 y1="230"
 x2="668"
 y2="230"
 id="linearGradient3540"
 xlink:href="#linearGradient5451"
 gradientUnits="userSpaceOnUse"
 gradientTransform="matrix(0.052,0,0,0.052,-2.27,-2.27)" />
<linearGradient
 x1="68"
 y1="54.4"
 x2="227"
 y2="54.4"
 id="linearGradient3257"
 xlink:href="#linearGradient5451"
 gradientUnits="userSpaceOnUse"
 gradientTransform="matrix(-0.052,0,0,-0.052,13.1,21.6)" />
<linearGradient
 x1="338"
 y1="230"
 x2="668"
 y2="230"
 id="linearGradient4348"
 xlink:href="#linearGradient5451"
 gradientUnits="userSpaceOnUse"
 gradientTransform="matrix(0.052,0,0,0.052,-2.27,-2.27)" />
<linearGradient
 x1="669"
 y1="230"
 x2="684"
 y2="230"
 id="linearGradient4350"
 xlink:href="#linearGradient5451"
 gradientUnits="userSpaceOnUse"
 gradientTransform="matrix(0.052,0,0,0.052,-2.27,-2.27)" />
<linearGradient
 x1="686"
 y1="230"
 x2="706"
 y2="230"
 id="linearGradient4352"
 xlink:href="#linearGradient5451"
 gradientUnits="userSpaceOnUse"
 gradientTransform="matrix(0.052,0,0,0.052,-2.27,-2.27)" />
<linearGradient
 x1="313"
 y1="230"
 x2="337"
 y2="230"
 id="linearGradient4354"
 xlink:href="#linearGradient5451"
 gradientUnits="userSpaceOnUse"
 gradientTransform="matrix(0.052,0,0,0.052,-2.27,-2.27)" />
<linearGradient
 x1="256"
 y1="230"
 x2="312"
 y2="230"
 id="linearGradient4356"
 xlink:href="#linearGradient5451"
 gradientUnits="userSpaceOnUse"
 gradientTransform="matrix(0.052,0,0,0.052,-2.27,-2.27)" />
<linearGradient
 x1="246"
 y1="230"
 x2="257"
 y2="230"
 id="linearGradient4358"
 xlink:href="#linearGradient5451"
 gradientUnits="userSpaceOnUse"
 gradientTransform="matrix(0.052,0,0,0.052,-2.27,-2.27)" />
<linearGradient
 x1="68"
 y1="54.4"
 x2="227"
 y2="54.4"
 id="linearGradient4360"
 xlink:href="#linearGradient5451"
 gradientUnits="userSpaceOnUse"
 gradientTransform="matrix(0.052,0,0,0.052,-2.27,-2.27)" />
<linearGradient
 x1="46.5"
 y1="94.6"
 x2="248"
 y2="94.6"
 id="linearGradient4362"
 xlink:href="#linearGradient5451"
 gradientUnits="userSpaceOnUse"
 gradientTransform="matrix(0.052,0,0,0.052,-2.27,-2.27)" />
<linearGradient
 x1="69.8"
 y1="139"
 x2="225"
 y2="139"
 id="linearGradient4364"
 xlink:href="#linearGradient5451"
 gradientUnits="userSpaceOnUse"
 gradientTransform="matrix(0.052,0,0,0.052,-2.27,-2.27)" />
<linearGradient
 x1="44.6"
 y1="167"
 x2="250"
 y2="167"
 id="linearGradient4366"
 xlink:href="#linearGradient5451"
 gradientUnits="userSpaceOnUse"
 gradientTransform="matrix(0.052,0,0,0.052,-2.27,-2.27)" />
<linearGradient
 x1="44.8"
 y1="292"
 x2="250"
 y2="292"
 id="linearGradient4368"
 xlink:href="#linearGradient5451"
 gradientUnits="userSpaceOnUse"
 gradientTransform="matrix(0.052,0,0,0.052,-2.27,-2.27)" />
<linearGradient
 x1="68.7"
 y1="320"
 x2="226"
 y2="320"
 id="linearGradient4370"
 xlink:href="#linearGradient5451"
 gradientUnits="userSpaceOnUse"
 gradientTransform="matrix(0.052,0,0,0.052,-2.27,-2.27)" />
<linearGradient
 x1="46.5"
 y1="365"
 x2="248"
 y2="365"
 id="linearGradient4372"
 xlink:href="#linearGradient5451"
 gradientUnits="userSpaceOnUse"
 gradientTransform="matrix(0.052,0,0,0.052,-2.27,-2.27)" />
<linearGradient
 x1="62.9"
 y1="68.5"
 x2="232"
 y2="68.5"
 id="linearGradient4374"
 xlink:href="#linearGradient5451"
 gradientUnits="userSpaceOnUse"
 gradientTransform="matrix(0.052,0,0,0.052,-2.27,-2.27)" />
<linearGradient
 x1="64.8"
 y1="121"
 x2="230"
 y2="121"
 id="linearGradient4376"
 xlink:href="#linearGradient5451"
 gradientUnits="userSpaceOnUse"
 gradientTransform="matrix(0.052,0,0,0.052,-2.27,-2.27)" />
<linearGradient
 x1="64.8"
 y1="339"
 x2="230"
 y2="339"
 id="linearGradient4378"
 xlink:href="#linearGradient5451"
 gradientUnits="userSpaceOnUse"
 gradientTransform="matrix(0.052,0,0,0.052,-2.27,-2.27)" />
<linearGradient
 x1="63"
 y1="391"
 x2="232"
 y2="391"
 id="linearGradient4380"
 xlink:href="#linearGradient5451"
 gradientUnits="userSpaceOnUse"
 gradientTransform="matrix(0.052,0,0,0.052,-2.27,-2.27)" />
<linearGradient
 x1="46.9"
 y1="230"
 x2="248"
 y2="230"
 id="linearGradient4382"
 xlink:href="#linearGradient5389"
 gradientUnits="userSpaceOnUse"
 gradientTransform="matrix(0.052,0,0,0.052,-2.27,-2.27)" />
<linearGradient
 x1="68"
 y1="54.4"
 x2="227"
 y2="54.4"
 id="linearGradient4384"
 xlink:href="#linearGradient5451"
 gradientUnits="userSpaceOnUse"
 gradientTransform="matrix(-0.052,0,0,-0.052,13.1,21.6)" />
</defs>
<g
 transform="matrix(0.866,0.5,-0.5,0.866,8.38,-1.49)"
 id="g4049">
<g
 id="g4027">
<path
 d="m 31.6,11.2 c -2.7,0.6 -5.7,0.7 -8.5,0.2 -0.7,-0.1 -7,-0.6 -7.6,-0.6 -0.2,0 -0.2,-0.2 -0.2,-1.12 l 0,-1.07 0.4,0 c 0.1,0 1.6,-0.14 3.3,-0.26 1.6,-0.13 3.4,-0.29 3.9,-0.37 2.2,-0.36 4.5,-0.43 6.3,-0.19 0.9,0.11 2.4,0.41 2.9,0.54 l 0.2,0.1 0,1.31 0,1.36 -0.8,0.2 0,0 z"
 id="path5387"
 style="color:#000000;fill:#703b1b;fill-opacity:1;fill-rule:nonzero;stroke:url(#linearGradient4348);stroke-width:0.074;stroke-linecap:butt;stroke-linejoin:miter;stroke-miterlimit:4;stroke-opacity:1;stroke-dasharray:none;stroke-dashoffset:0;marker:none;visibility:visible;display:inline;overflow:visible;enable-background:accumulate" />
<path
 d="M 33.1,10.7 C 33,10.6 33,10.6 32.9,10.6 c -0.2,0 -0.2,0 -0.3,0.1 l -0.2,0.1 0,-1.16 0,-1.16 0.2,0.1 c 0.1,0.12 0.4,0.13 0.5,0 l 0.1,-0.1 0,1.09 0,1.03 -0.1,-0.1 z"
 id="path5407"
 style="color:#000000;fill:#703b1b;fill-opacity:1;fill-rule:nonzero;stroke:url(#linearGradient4350);stroke-width:0.037;stroke-linecap:butt;stroke-linejoin:miter;stroke-miterlimit:4;stroke-opacity:1;stroke-dasharray:none;stroke-dashoffset:0;marker:none;visibility:visible;display:inline;overflow:visible;enable-background:accumulate" />
<path
 d="m 34.3,10.1 c 0,0.1 -0.1,0.2 -0.2,0.2 -0.1,0.2 -0.8,0.5 -0.8,0.5 0,0 0,-0.5 0,-1.16 l 0,-1.11 0.4,0.2 c 0.2,0.11 0.4,0.25 0.5,0.32 0.2,0.26 0.3,0.68 0.1,1.05 l 0,0 z"
 id="path5433"
 style="color:#000000;fill:#82242d;fill-opacity:0;fill-rule:nonzero;stroke:#000000;stroke-width:0.037;stroke-linecap:butt;stroke-linejoin:miter;stroke-miterlimit:4;stroke-opacity:1;stroke-dasharray:none;stroke-dashoffset:0;marker:none;visibility:visible;display:inline;overflow:visible;enable-background:accumulate" />
<path
 d="m 34.3,9.92 c -0.1,0.18 -0.2,0.38 -0.6,0.58 -0.2,0.1 -0.3,0.2 -0.3,0.2 0,0 0,-0.5 0,-1.05 l 0,-1.06 0.1,0.1 c 0.4,0.18 0.7,0.41 0.8,0.57 0.1,0.19 0.1,0.49 0.1,0.68 z"
 id="path5449"
 style="color:#000000;fill:#703b1b;fill-opacity:1;fill-rule:nonzero;stroke:url(#linearGradient4352);stroke-width:0.037;stroke-linecap:butt;stroke-linejoin:miter;stroke-miterlimit:4;stroke-opacity:1;stroke-dasharray:none;stroke-dashoffset:0;marker:none;visibility:visible;display:inline;overflow:visible;enable-background:accumulate" />
<path
 d="m 15.1,11 c -0.2,0.2 -0.3,0.3 -0.5,0.3 -0.2,0 -0.4,-0.1 -0.5,-0.3 L 14,10.9 14,9.73 c 0,-0.64 0,-1.19 0,-1.24 0,-0.21 0.4,-0.45 0.6,-0.45 0.2,0 0.4,0.15 0.5,0.29 l 0.1,0.13 0,1.22 0,1.22 -0.1,0.1 z"
 id="path5461"
 style="color:#000000;fill:#703b1b;fill-opacity:1;fill-rule:nonzero;stroke:url(#linearGradient4354);stroke-width:0.037;stroke-linecap:butt;stroke-linejoin:miter;stroke-miterlimit:4;stroke-opacity:1;stroke-dasharray:none;stroke-dashoffset:0;marker:none;visibility:visible;display:inline;overflow:visible;enable-background:accumulate" />
<path
 d="m 13.8,10.8 c -0.6,0.1 -1,0.3 -1.4,0.7 -0.3,0.4 -0.8,0.4 -1,-0.1 -0.1,-0.1 -0.2,-0.2 -0.2,-0.2 -0.1,-0.1 -0.1,-0.2 -0.1,-0.5 -0.1,-0.95 0,-2.54 0.1,-2.61 0,0 0.1,-0.1 0.1,-0.17 0.1,-0.17 0.2,-0.32 0.4,-0.37 0.2,-0.11 0.6,0 0.8,0.2 0.2,0.35 0.7,0.67 1.2,0.74 l 0.2,0 0,1.09 0,1.12 -0.1,0 z"
 id="path5471"
 style="color:#000000;fill:#703b1b;fill-opacity:1;fill-rule:nonzero;stroke:url(#linearGradient4356);stroke-width:0.037;stroke-linecap:butt;stroke-linejoin:miter;stroke-miterlimit:4;stroke-opacity:1;stroke-dasharray:none;stroke-dashoffset:0;marker:none;visibility:visible;display:inline;overflow:visible;enable-background:accumulate" />
<path
 d="m 11,11.2 c -0.1,0 -0.1,0.1 -0.2,0.2 0,0 0,0.1 -0.1,0.1 0,0 -0.1,0 -0.1,0 0,0 -0.1,-0.7 -0.1,-1 0,-0.6 0,-1.56 0,-2.15 0.1,-0.43 0.1,-0.51 0.1,-0.52 0.1,0 0.2,0 0.2,0.16 0,0.1 0.1,0.15 0.1,0.15 0,0 0,0 0,0 0,0.11 -0.1,0.75 -0.1,1.21 0,0.53 0,1.15 0.1,1.55 l 0,0.3 0,0 z"
 id="path5481"
 style="color:#000000;fill:#703b1b;fill-opacity:1;fill-rule:nonzero;stroke:url(#linearGradient4358);stroke-width:0.019;stroke-linecap:butt;stroke-linejoin:miter;stroke-miterlimit:4;stroke-opacity:1;stroke-dasharray:none;stroke-dashoffset:0;marker:none;visibility:visible;display:inline;overflow:visible;enable-background:accumulate" />
<path
 d="M 1.61,0.883 C 2.27,0.564 3.1,0.303 3.98,0.153 4.63,0.039 6.05,0.032 6.69,0.138 7.62,0.288 8.72,0.63 9.36,0.967 l 0.15,0.08 -4.11,0 -4.12,0 0.34,-0.187 0,0 z"
 id="path5730"
 style="color:#000000;fill:#703b1b;fill-opacity:1;fill-rule:nonzero;stroke:url(#linearGradient4360);stroke-width:0.037;stroke-linecap:butt;stroke-linejoin:miter;stroke-miterlimit:4;stroke-opacity:1;stroke-dasharray:none;stroke-dashoffset:0;marker:none;visibility:visible;display:inline;overflow:visible;enable-background:accumulate" />
<path
 d="M 0.998,3.72 C 0.675,3.62 0.393,3.37 0.253,3.07 0.132,2.81 0.136,2.4 0.257,2.14 0.367,1.92 0.573,1.71 0.774,1.61 0.921,1.53 0.965,1.53 5.38,1.53 c 4.46,0 4.47,0 4.61,0.1 0.41,0.2 0.61,0.53 0.61,0.97 0,0.24 0,0.31 -0.1,0.49 -0.1,0.27 -0.3,0.45 -0.53,0.57 l -0.21,0.1 -4.34,0 c -2.38,0 -4.38,0 -4.432,0 z"
 id="path5740"
 style="color:#000000;fill:#703b1b;fill-opacity:1;fill-rule:nonzero;stroke:url(#linearGradient4362);stroke-width:0.037;stroke-linecap:butt;stroke-linejoin:miter;stroke-miterlimit:4;stroke-opacity:1;stroke-dasharray:none;stroke-dashoffset:0;marker:none;visibility:visible;display:inline;overflow:visible;enable-background:accumulate" />
<path
 d="M 1.54,5.49 C 1.84,5.21 1.87,4.78 1.63,4.43 l -0.11,-0.15 3.88,0 3.87,0 -0.11,0.13 C 8.88,4.73 8.92,5.25 9.26,5.54 l 0.14,0.11 -4.01,0 -4.01,0 0.17,-0.16 z"
 id="path5750"
 style="color:#000000;fill:#703b1b;fill-opacity:1;fill-rule:nonzero;stroke:url(#linearGradient4364);stroke-width:0.037;stroke-linecap:butt;stroke-linejoin:miter;stroke-miterlimit:4;stroke-opacity:1;stroke-dasharray:none;stroke-dashoffset:0;marker:none;visibility:visible;display:inline;overflow:visible;enable-background:accumulate" />
<path
 d="m 0.701,6.96 0,-0.12 -0.319,0 -0.32,0 0.015,-0.22 C 0.11,6.21 0.426,5.84 0.815,5.76 c 0.132,0 1.545,0 4.595,0 4.79,0 4.59,0 4.89,0.21 0.2,0.12 0.3,0.33 0.4,0.59 0.1,0.29 0,0.31 -0.3,0.32 l -0.3,0 0,0.12 0,0.12 -4.71,0 -4.665,0 0,-0.13 z"
 id="path5760"
 style="color:#000000;fill:#703b1b;fill-opacity:1;fill-rule:nonzero;stroke:url(#linearGradient4366);stroke-width:0.037;stroke-linecap:butt;stroke-linejoin:miter;stroke-miterlimit:4;stroke-opacity:1;stroke-dasharray:none;stroke-dashoffset:0;marker:none;visibility:visible;display:inline;overflow:visible;enable-background:accumulate" />
<path
 d="M 0.602,13.5 C 0.275,13.3 0.074,13 0.074,12.6 l 0,-0.1 0.315,0 0.308,0 0,-0.1 0,-0.1 4.673,0 4.63,0 0,0.1 0,0.1 0.4,0 c 0.3,0 0.3,0 0.3,0.3 -0.1,0.3 -0.3,0.6 -0.6,0.7 l -0.15,0.1 -4.58,0 -4.584,0 -0.191,-0.1 z"
 id="path5770"
 style="color:#000000;fill:#703b1b;fill-opacity:1;fill-rule:nonzero;stroke:url(#linearGradient4368);stroke-width:0.037;stroke-linecap:butt;stroke-linejoin:miter;stroke-miterlimit:4;stroke-opacity:1;stroke-dasharray:none;stroke-dashoffset:0;marker:none;visibility:visible;display:inline;overflow:visible;enable-background:accumulate" />
<path
 d="m 1.59,14.9 c 0.16,-0.1 0.19,-0.2 0.2,-0.5 0,-0.3 -0.13,-0.5 -0.34,-0.7 l -0.13,-0.1 4.05,0 4.06,0 -0.16,0.2 c -0.35,0.3 -0.4,0.7 -0.11,1.1 l 0.11,0.2 -3.9,0 -3.9,0 0.12,-0.2 z"
 id="path5780"
 style="color:#000000;fill:#703b1b;fill-opacity:1;fill-rule:nonzero;stroke:url(#linearGradient4370);stroke-width:0.037;stroke-linecap:butt;stroke-linejoin:miter;stroke-miterlimit:4;stroke-opacity:1;stroke-dasharray:none;stroke-dashoffset:0;marker:none;visibility:visible;display:inline;overflow:visible;enable-background:accumulate" />
<path
 d="m 0.8,17.7 c -0.825,-0.4 -0.855,-1.5 -0.06,-2 l 0.198,-0.1 4.372,0 c 4.89,0 4.58,0 4.89,0.3 0.3,0.2 0.4,0.4 0.4,0.8 0,0.2 0,0.3 -0.1,0.5 -0.1,0.2 -0.3,0.4 -0.55,0.5 l -0.17,0.1 -4.43,0 c -4.402,0 -4.432,0 -4.575,-0.1 z"
 id="path5790"
 style="color:#000000;fill:#703b1b;fill-opacity:1;fill-rule:nonzero;stroke:url(#linearGradient4372);stroke-width:0.037;stroke-linecap:butt;stroke-linejoin:miter;stroke-miterlimit:4;stroke-opacity:1;stroke-dasharray:none;stroke-dashoffset:0;marker:none;visibility:visible;display:inline;overflow:visible;enable-background:accumulate" />
<path
 d="m 1.01,1.46 c 0,0 0,-0.1 0.1,-0.18 l 0.1,-0.18 4.24,0 4.24,0 0,0.1 c 0,0 0,0.12 0.1,0.19 l 0,0.11 -4.38,0 c -2.42,0 -4.39,0 -4.39,0 z"
 id="path5810"
 style="color:#000000;fill:#703b1b;fill-opacity:1;fill-rule:nonzero;stroke:url(#linearGradient4374);stroke-width:0.019;stroke-linecap:butt;stroke-linejoin:miter;stroke-miterlimit:4;stroke-opacity:1;stroke-dasharray:none;stroke-dashoffset:0;marker:none;visibility:visible;display:inline;overflow:visible;enable-background:accumulate" />
<path
 d="M 1.28,4.19 C 1.17,4.13 1.08,3.97 1.1,3.84 l 0,0 4.27,0 4.27,0 0,0.1 c 0,0.13 -0.1,0.23 -0.15,0.29 l -0.1,0 -4.04,0 c -3.68,0 -4.05,0 -4.1,0 z"
 id="path5820"
 style="color:#000000;fill:#703b1b;fill-opacity:1;fill-rule:nonzero;stroke:url(#linearGradient4376);stroke-width:0.019;stroke-linecap:butt;stroke-linejoin:miter;stroke-miterlimit:4;stroke-opacity:1;stroke-dasharray:none;stroke-dashoffset:0;marker:none;visibility:visible;display:inline;overflow:visible;enable-background:accumulate" />
<path
 d="m 1.1,15.5 c 0,0 0,-0.1 0,-0.1 0,-0.1 0.15,-0.3 0.24,-0.3 0,0 1.85,0 4.04,0 4.24,0 4.06,0 4.16,0.1 0.1,0 0.1,0.2 0.1,0.3 l 0,0.1 -4.27,0 -4.27,0 0,-0.1 z"
 id="path5830"
 style="color:#000000;fill:#703b1b;fill-opacity:1;fill-rule:nonzero;stroke:url(#linearGradient4378);stroke-width:0.019;stroke-linecap:butt;stroke-linejoin:miter;stroke-miterlimit:4;stroke-opacity:1;stroke-dasharray:none;stroke-dashoffset:0;marker:none;visibility:visible;display:inline;overflow:visible;enable-background:accumulate" />
<path
 d="M 1.07,18.1 C 1.03,18 1,17.9 1.01,17.9 c 0,0 1.98,0 4.38,0 l 4.38,0 -0.1,0.2 -0.1,0.1 -4.24,0 -4.25,0 -0.1,-0.2 z"
 id="path5840"
 style="color:#000000;fill:#703b1b;fill-opacity:1;fill-rule:nonzero;stroke:url(#linearGradient4380);stroke-width:0.019;stroke-linecap:butt;stroke-linejoin:miter;stroke-miterlimit:4;stroke-opacity:1;stroke-dasharray:none;stroke-dashoffset:0;marker:none;visibility:visible;display:inline;overflow:visible;enable-background:accumulate" />
<path
 d="m 0.187,9.65 0,-2.52 5.193,0 5.22,0 0,0.38 c 0,0.21 0,0.59 -0.1,0.86 -0.1,0.62 -0.1,1.93 0,2.63 0,0.2 0.1,0.6 0.1,0.8 l 0,0.4 -5.22,0 -5.193,0 0,-2.55 z"
 id="path5850"
 style="color:#000000;fill:#cca876;fill-opacity:1;fill-rule:nonzero;stroke:url(#linearGradient4382);stroke-width:0.037;stroke-linecap:butt;stroke-linejoin:miter;stroke-miterlimit:4;stroke-opacity:1;stroke-dasharray:none;stroke-dashoffset:0;marker:none;visibility:visible;display:inline;overflow:visible;enable-background:accumulate" />
<path
 d="M 9.17,18.5 C 8.52,18.8 7.68,19 6.81,19.2 6.15,19.3 4.74,19.3 4.09,19.2 3.17,19.1 2.06,18.7 1.42,18.4 l -0.14,-0.1 4.11,0 4.12,0 -0.34,0.1 0,0 z"
 id="path3255"
 style="color:#000000;fill:#703b1b;fill-opacity:1;fill-rule:nonzero;stroke:url(#linearGradient4384);stroke-width:0.037;stroke-linecap:butt;stroke-linejoin:miter;stroke-miterlimit:4;stroke-opacity:1;stroke-dasharray:none;stroke-dashoffset:0;marker:none;visibility:visible;display:inline;overflow:visible;enable-background:accumulate" />
</g>
</g>
</svg>
